<svg width="20" id="Layer_1" data-name="Layer 1" xmlns="http://www.w3.org/2000/svg" viewBox="0 0 128 114.02"><defs><style>.cls-1{fill:#69de89;}.cls-2{fill:#fff;}</style></defs><title>mt icon</title><path class="cls-1" d="M62.54,23.14v2.78H51.71a25.62,25.62,0,0,0-25.6,25.6V81.77H20.22A20.28,20.28,0,0,1,0,61.55V20.22A20.28,20.28,0,0,1,20.22,0H61.55A20.08,20.08,0,0,1,75.36,5.49,18.59,18.59,0,0,0,62.54,23.14Z"/><path class="cls-2" d="M111.51,104.3A19.62,19.62,0,0,1,94.61,114H51.71a19.66,19.66,0,0,1-19.6-19.6V51.52a19.66,19.66,0,0,1,19.6-19.6H62.54V57.48A18.59,18.59,0,0,0,81.1,76h26.19c-.18,1.84-.27,3.72-.27,5.61A58.85,58.85,0,0,0,111.51,104.3Z"/><path class="cls-1" d="M128,23.14V36.71a56.76,56.76,0,0,0-13.79,16.65,57.85,57.85,0,0,0-6,16.68H81.1A12.59,12.59,0,0,1,68.54,57.48V23.14A12.6,12.6,0,0,1,81.1,10.58h34.34A12.6,12.6,0,0,1,128,23.14Z"/></svg>