<svg width="40" height="40" viewBox="0 0 40 40" fill="none" xmlns="http://www.w3.org/2000/svg">
<rect width="40" height="40" rx="4" fill="#151515"/>
<path d="M29.6812 25.4614L22.0367 12.1795C21.6116 11.441 20.8502 11 20 11C19.1498 11 18.3884 11.441 17.9633 12.1795L10.3188 25.4614C9.89372 26.2 9.89372 27.0819 10.3188 27.8205C10.744 28.5591 11.5053 29 12.3555 29H27.6445C28.4946 29 29.256 28.559 29.6812 27.8205C30.1063 27.0819 30.1063 26.2 29.6812 25.4614ZM28.6664 27.2328C28.4531 27.6034 28.0711 27.8247 27.6445 27.8247H12.3555C11.9289 27.8247 11.5468 27.6034 11.3336 27.2328C11.1203 26.8622 11.1203 26.4198 11.3336 26.0492L18.9781 12.7672C19.1914 12.3966 19.5734 12.1754 20 12.1754C20.4266 12.1754 20.8086 12.3966 21.0219 12.7672L28.6664 26.0492C28.8797 26.4198 28.8797 26.8622 28.6664 27.2328Z" fill="white"/>
<path d="M20.5858 16.8657H19.4141V22.7426H20.5858V16.8657Z" fill="white"/>
<path d="M20 23.918C19.5692 23.918 19.2188 24.2695 19.2188 24.7016C19.2188 25.1337 19.5692 25.4852 20 25.4852C20.4307 25.4852 20.7812 25.1337 20.7812 24.7016C20.7812 24.2695 20.4307 23.918 20 23.918Z" fill="white"/>
</svg>
