<svg width="40" height="40" viewBox="0 0 40 40" fill="none" xmlns="http://www.w3.org/2000/svg">
<rect width="40" height="40" rx="4" fill="#151515"/>
<path d="M29.4141 14.9163H24.9609V11.5649C24.9609 11.2529 24.6986 11 24.375 11H10.5859C10.2623 11 10 11.2529 10 11.5649V26.1757C10 27.733 11.3143 29 12.9297 29H27.0703C28.6857 29 30 27.733 30 26.1757V15.4812C30 15.1692 29.7377 14.9163 29.4141 14.9163ZM12.9297 27.8703C11.9604 27.8703 11.1719 27.1101 11.1719 26.1757V12.1297H23.7891C23.7891 27.0594 23.7817 26.2294 23.8025 26.4422C23.8534 26.9659 24.056 27.4597 24.3764 27.8703H12.9297ZM28.8281 26.1757C28.8281 27.1101 28.0396 27.8703 27.0703 27.8703C26.9388 27.8703 26.8479 27.8703 26.7188 27.8703C25.7495 27.8703 24.9609 27.1101 24.9609 26.1757V16.046H28.8281V26.1757Z" fill="white"/>
<path d="M21.875 13.7113H13.125C12.8014 13.7113 12.5391 13.9642 12.5391 14.2762C12.5391 14.5881 12.8014 14.841 13.125 14.841H21.875C22.1986 14.841 22.4609 14.5881 22.4609 14.2762C22.4609 13.9642 22.1986 13.7113 21.875 13.7113Z" fill="white"/>
<path d="M21.875 16.1213H13.125C12.8014 16.1213 12.5391 16.3742 12.5391 16.6862C12.5391 16.9981 12.8014 17.251 13.125 17.251H21.875C22.1986 17.251 22.4609 16.9981 22.4609 16.6862C22.4609 16.3742 22.1986 16.1213 21.875 16.1213Z" fill="white"/>
<path d="M21.875 25.159H13.125C12.8014 25.159 12.5391 25.4119 12.5391 25.7238C12.5391 26.0358 12.8014 26.2887 13.125 26.2887H21.875C22.1986 26.2887 22.4609 26.0358 22.4609 25.7238C22.4609 25.4119 22.1986 25.159 21.875 25.159Z" fill="white"/>
<path d="M21.875 18.5314H17.5C17.1764 18.5314 16.9141 18.7843 16.9141 19.0962V23.3138C16.9141 23.6258 17.1764 23.8787 17.5 23.8787H21.875C22.1986 23.8787 22.4609 23.6258 22.4609 23.3138V19.0962C22.4609 18.7843 22.1986 18.5314 21.875 18.5314ZM21.2891 22.749H18.0859V19.6611H21.2891V22.749Z" fill="white"/>
<path d="M13.125 20.5649H15C15.3236 20.5649 15.5859 20.3119 15.5859 20C15.5859 19.6881 15.3236 19.4351 15 19.4351H13.125C12.8014 19.4351 12.5391 19.6881 12.5391 20C12.5391 20.3119 12.8014 20.5649 13.125 20.5649Z" fill="white"/>
<path d="M13.125 22.9749H15C15.3236 22.9749 15.5859 22.722 15.5859 22.41C15.5859 22.0981 15.3236 21.8452 15 21.8452H13.125C12.8014 21.8452 12.5391 22.0981 12.5391 22.41C12.5391 22.722 12.8014 22.9749 13.125 22.9749Z" fill="white"/>
</svg>
