<svg width="40" height="40" viewBox="0 0 40 40" fill="none" xmlns="http://www.w3.org/2000/svg">
<rect width="40" height="40" rx="4" fill="#151515"/>
<path d="M27.5141 30L21.8992 24.3851L20.0174 29.9913L14.4612 14.4611L29.9913 20.0174L24.3851 21.8993L30 27.5142L27.5141 30ZM26.414 19.9821L16.3991 16.3991L19.9821 26.414L21.3903 22.2189L27.5141 28.3428L28.3427 27.5142L22.2189 21.3903L26.414 19.9821Z" fill="white"/>
<path d="M13.3856 18.0715L12.5571 17.243L10.2138 19.5864L11.0423 20.4149L13.3856 18.0715Z" fill="white"/>
<path d="M20.4152 11.0404L19.5867 10.2119L17.2434 12.5553L18.0719 13.3838L20.4152 11.0404Z" fill="white"/>
<path d="M13.3849 12.5559L11.0416 10.2126L10.2131 11.0411L12.5564 13.3844L13.3849 12.5559Z" fill="white"/>
<path d="M15.8983 10H14.7264V12.3437H15.8983V10Z" fill="white"/>
<path d="M12.3784 14.7264H9.99996V15.8983H12.3784V14.7264Z" fill="white"/>
</svg>
