<svg width="40" height="40" viewBox="0 0 40 40" fill="none" xmlns="http://www.w3.org/2000/svg">
<rect width="40" height="40" rx="4" fill="#151515"/>
<path d="M30 18.5233C30 16.5335 28.531 14.8811 26.6223 14.5965V11.9474C26.6223 10.8736 25.7501 10 24.678 10C23.606 10 22.7339 10.8736 22.7339 11.9474V12.2183L17.3316 14.3343H14.3515C11.9521 14.3343 10 16.2896 10 18.6929C10 20.9445 11.7133 22.8027 13.9026 23.0285L15.7646 29.5739C15.8363 29.8261 16.0664 30 16.3281 30H19.2969C19.479 30 19.6507 29.9152 19.7616 29.7705C19.8725 29.6258 19.91 29.4377 19.8629 29.2615L18.3072 23.4337L22.7338 25.1676V25.4385C22.7338 26.5123 23.606 27.3859 24.678 27.3859C25.75 27.3859 26.6222 26.5123 26.6222 25.4385V22.45C28.531 22.1655 30 20.513 30 18.5233ZM15.0138 15.5081H16.8561V21.8778H15.0138V15.5081ZM11.1719 18.6929C11.1719 17.1106 12.3301 15.7946 13.8419 15.5495V21.8363C12.3301 21.5913 11.1719 20.2753 11.1719 18.6929ZM16.7704 28.8262L15.1277 23.0516H16.9921L18.5337 28.8262H16.7704ZM18.028 22.064V15.3219L22.7339 13.4787V23.9073L18.028 22.064ZM25.4504 25.4385C25.4504 25.865 25.1039 26.2121 24.678 26.2121C24.2522 26.2121 23.9057 25.8651 23.9057 25.4385V11.9474C23.9057 11.5209 24.2522 11.1738 24.678 11.1738C25.1039 11.1738 25.4504 11.5209 25.4504 11.9474V25.4385ZM26.6223 21.2577V15.7888C27.8813 16.0592 28.8281 17.1825 28.8281 18.5233C28.8281 19.864 27.8814 20.9873 26.6223 21.2577Z" fill="white"/>
</svg>
