<svg width="40" height="40" viewBox="0 0 40 40" fill="none" xmlns="http://www.w3.org/2000/svg">
<rect width="40" height="40" rx="4" fill="#151515"/>
<path d="M28.3644 12.6921C27.33 11.6151 25.8804 11.0024 24.3617 11.0001C22.8417 11.0018 21.3906 11.6143 20.3546 12.6914L20.0015 13.0528L19.6484 12.6914C17.5925 10.5484 14.1321 10.4253 11.9195 12.4164C11.8215 12.5047 11.7268 12.5964 11.6357 12.6914C9.45478 14.9697 9.45478 18.4908 11.6357 20.7691L19.4826 28.7838C19.754 29.0614 20.2064 29.0733 20.493 28.8103C20.5024 28.8017 20.5115 28.7929 20.5204 28.7838L28.3645 20.7691C30.5452 18.491 30.5452 14.9702 28.3644 12.6921ZM27.3302 19.8158H27.3295L20.0015 27.3016L12.6728 19.8158C11.0068 18.0749 11.0068 15.3849 12.6728 13.644C14.1858 12.0558 16.7417 11.9562 18.3816 13.4215C18.4612 13.4927 18.5378 13.5669 18.6112 13.644L19.4826 14.5343C19.7697 14.8106 20.2333 14.8106 20.5204 14.5343L21.3917 13.6447C22.9047 12.0564 25.4606 11.9569 27.1005 13.4222C27.1801 13.4934 27.2567 13.5676 27.3302 13.6447C29.0107 15.3883 29.023 18.0833 27.3302 19.8158Z" fill="white"/>
</svg>
