<svg width="40" height="40" viewBox="0 0 40 40" fill="none" xmlns="http://www.w3.org/2000/svg">
<rect width="40" height="40" rx="4" fill="#151515"/>
<path d="M28.2422 12H11.7578C10.7898 12 10 12.8286 10 13.8462V26.1538C10 27.168 10.7863 28 11.7578 28H28.2422C29.2078 28 30 27.1742 30 26.1538V13.8462C30 12.832 29.2137 12 28.2422 12ZM27.9995 13.2308L20.0373 21.5931L12.0062 13.2308H27.9995ZM11.1719 25.899V14.0951L16.8156 19.9717L11.1719 25.899ZM12.0005 26.7692L17.6478 20.8382L19.6266 22.8985C19.8556 23.1371 20.2253 23.1363 20.4534 22.8967L22.3828 20.8703L27.9995 26.7692H12.0005ZM28.8281 25.899L23.2114 20L28.8281 14.101V25.899Z" fill="white"/>
</svg>
