<svg width="40" height="40" viewBox="0 0 40 40" fill="none" xmlns="http://www.w3.org/2000/svg">
<rect width="40" height="40" rx="4" fill="#151515"/>
<path d="M23.8099 18.0348C24.8739 16.5825 25.6304 14.91 25.8603 13.5156H25.9719C26.9214 13.5156 27.6939 12.7271 27.6939 11.7578V10.5859C27.6939 10.2623 27.4369 10 27.1199 10H13.574C13.257 10 13 10.2623 13 10.5859V11.7578C13 12.7271 13.7725 13.5156 14.7219 13.5156H14.838C15.0682 14.8911 15.8038 16.5317 16.8475 17.9761C17.2082 18.4753 17.9369 19.3956 18.7943 19.9992C17.9107 20.6207 17.1599 21.5837 16.7904 22.1036C15.7711 23.5376 15.0636 25.1359 14.8381 26.4844H14.7219C13.7725 26.4844 13 27.2729 13 28.2422V29.4141C13 29.7377 13.257 30 13.574 30H27.1199C27.4369 30 27.6939 29.7377 27.6939 29.4141V28.2422C27.6939 27.2729 26.9214 26.4844 25.9719 26.4844H25.8603C25.6335 25.1096 24.8986 23.4691 23.8525 22.0237C23.491 21.5241 22.7603 20.6029 21.9005 19.9994C22.7409 19.4093 23.4551 18.5193 23.8099 18.0348ZM14.148 11.7578V11.1719H26.5459V11.7578C26.5459 12.0809 26.2884 12.3438 25.9719 12.3438H14.7219C14.4054 12.3438 14.148 12.0809 14.148 11.7578ZM24.6928 13.5156C24.5042 14.4451 24.0414 15.5388 23.4091 16.5625H17.3622C17.3393 16.5625 17.3168 16.5643 17.2946 16.5669C16.66 15.54 16.1975 14.4472 16.0062 13.5156L24.6928 13.5156ZM19.773 20.7633V24.1407H16.8893C17.1307 23.6832 17.4099 23.2275 17.7195 22.7919C18.4877 21.7111 19.2224 21.0542 19.773 20.7633ZM26.5459 28.2422V28.8282H14.148V28.2422C14.148 27.9191 14.4054 27.6563 14.7219 27.6563H25.9719C26.2884 27.6563 26.5459 27.9191 26.5459 28.2422ZM16.0061 26.4844C16.0819 26.1144 16.2004 25.7191 16.3556 25.3125H24.3446C24.4996 25.7193 24.6176 26.1146 24.6926 26.4844H16.0061ZM22.9292 22.7201C23.2589 23.1756 23.556 23.6566 23.8113 24.1407H20.9209V20.7634C21.4601 21.0477 22.1777 21.6815 22.9292 22.7201ZM20.3486 19.4141C20.348 19.4141 20.3475 19.414 20.3469 19.414C20.3464 19.414 20.3459 19.4141 20.3453 19.4141C19.8866 19.4129 19.0473 18.8889 18.1176 17.7344H22.582C21.6495 18.8895 20.8062 19.4129 20.3486 19.4141Z" fill="white"/>
</svg>
