<svg width="40" height="40" viewBox="0 0 40 40" fill="none" xmlns="http://www.w3.org/2000/svg">
<rect width="40" height="40" rx="4" fill="#151515"/>
<path d="M22.1095 17.6028C20.2141 17.6028 18.672 19.1544 18.672 21.0615C18.672 22.9686 20.2141 24.5201 22.1095 24.5201C24.005 24.5201 25.547 22.9686 25.547 21.0615C25.547 19.1544 24.005 17.6028 22.1095 17.6028ZM22.1095 23.7341C20.6448 23.7341 19.4533 22.5352 19.4533 21.0615C19.4533 19.5878 20.6448 18.3889 22.1095 18.3889C23.5742 18.3889 24.7658 19.5878 24.7658 21.0615C24.7658 22.5352 23.5742 23.7341 22.1095 23.7341Z" fill="white"/>
<path d="M22.1095 19.293C21.8938 19.293 21.7189 19.469 21.7189 19.686C21.7189 19.9031 21.8938 20.0791 22.1095 20.0791C22.6479 20.0791 23.0859 20.5198 23.0859 21.0615C23.0859 21.2786 23.2608 21.4545 23.4766 21.4545C23.6923 21.4545 23.8672 21.2786 23.8672 21.0615C23.8672 20.0863 23.0788 19.293 22.1095 19.293Z" fill="white"/>
<path d="M12.408 13.9635C12.3088 13.7708 12.0732 13.6955 11.8816 13.7951C11.6899 13.8949 11.615 14.1321 11.7142 14.3249L12.7657 16.3686C12.8337 16.501 12.9713 16.5819 13.1184 16.581C13.2664 16.5787 13.4006 16.4924 13.4647 16.3581L14.1013 15.0245L14.7926 16.3686C14.8599 16.4991 14.9937 16.581 15.1396 16.581H15.1454C15.2936 16.5787 15.4276 16.4924 15.4918 16.3581L16.4673 14.3143C16.5607 14.1187 16.4787 13.8838 16.2843 13.7899C16.0898 13.6959 15.8565 13.7784 15.7631 13.9741L15.1265 15.3076L14.435 13.9635C14.3669 13.8312 14.2296 13.75 14.0823 13.7512C13.9342 13.7535 13.8 13.8398 13.736 13.9741L13.0995 15.3076L12.408 13.9635Z" fill="white"/>
<path d="M14.9214 11.7861C15.0243 11.7861 15.125 11.744 15.1976 11.6709C15.2704 11.5978 15.312 11.4963 15.312 11.393C15.312 11.2897 15.2704 11.1882 15.1976 11.1151C15.125 11.0421 15.0243 11 14.9214 11C14.8187 11 14.718 11.0421 14.6454 11.1151C14.5726 11.1882 14.5308 11.2897 14.5308 11.393C14.5308 11.4963 14.5726 11.5978 14.6454 11.6709C14.718 11.744 14.8187 11.7861 14.9214 11.7861Z" fill="white"/>
<path d="M30 17.7601V12.5721C30 11.7053 29.299 11 28.4375 11H16.562C16.3464 11 16.1714 11.1759 16.1714 11.393C16.1714 11.6101 16.3464 11.7861 16.562 11.7861H28.4375C28.8683 11.7861 29.2188 12.1387 29.2188 12.5721V17.7601C29.2188 18.1935 28.8683 18.5461 28.4375 18.5461H26.5625C26.5512 18.5461 26.5402 18.5469 26.5292 18.5478C25.9264 17.4789 24.9518 16.6493 23.7834 16.2377L24.3625 15.0247L25.054 16.3686C25.1212 16.4993 25.255 16.581 25.4008 16.581H25.4068C25.5548 16.5787 25.6889 16.4924 25.753 16.3581L26.7285 14.3143C26.8219 14.1187 26.74 13.884 26.5456 13.79C26.3512 13.6959 26.1177 13.7784 26.0243 13.9741L25.3879 15.3076L24.6964 13.9635C24.6283 13.8312 24.4911 13.75 24.3436 13.7513C24.1954 13.7535 24.0614 13.8398 23.9973 13.9741L23.3607 15.3076L22.6694 13.9635C22.5702 13.7708 22.3344 13.6955 22.1428 13.7952C21.9511 13.895 21.8764 14.1321 21.9754 14.3249L22.84 16.0053C22.6015 15.9706 22.3576 15.9521 22.1097 15.9521C21.6295 15.9521 21.1646 16.0197 20.7239 16.1456L21.5981 14.3143C21.6914 14.1187 21.6095 13.884 21.4149 13.79C21.2206 13.6959 20.9871 13.7784 20.8939 13.9741L20.2573 15.3076L19.5657 13.9635C19.4977 13.8312 19.3611 13.75 19.213 13.7513C19.0649 13.7535 18.9308 13.8398 18.8667 13.9741L18.2303 15.3076L17.5388 13.9635C17.4396 13.7708 17.204 13.6955 17.0123 13.7952C16.8207 13.895 16.7458 14.1321 16.8449 14.3249L17.8964 16.3686C17.9645 16.501 18.1015 16.5819 18.2492 16.581C18.3972 16.5787 18.5313 16.4924 18.5954 16.3581L19.232 15.0247L19.9234 16.3686C19.935 16.3912 19.9492 16.4116 19.9646 16.4311C19.0067 16.8822 18.2108 17.6253 17.6909 18.5461H11.5625C11.1317 18.5461 10.7812 18.1935 10.7812 17.7601V12.5721C10.7812 12.1387 11.1317 11.7861 11.5625 11.7861H13.1638C13.3795 11.7861 13.5544 11.6101 13.5544 11.393C13.5544 11.1759 13.3795 11 13.1638 11H11.5625C10.701 11 10 11.7053 10 12.5721V17.7601C10 18.627 10.701 19.3322 11.5625 19.3322H17.3311C17.1373 19.8726 17.0314 20.4547 17.0314 21.0615C17.0314 23.8788 19.3094 26.1708 22.1095 26.1708C23.0296 26.1708 23.8934 25.9233 24.6385 25.491L27.7388 28.6104C27.997 28.8701 28.3362 29 28.6754 29C29.0146 29 29.3538 28.8701 29.612 28.6104C30.1285 28.0907 30.1285 27.2452 29.612 26.7255L28.3939 25.4999C28.2413 25.3465 27.9939 25.3464 27.8415 25.4999C27.6889 25.6534 27.6889 25.9022 27.8415 26.0557L29.0596 27.2814C29.2714 27.4945 29.2714 27.8413 29.0596 28.0546C28.8478 28.2677 28.5031 28.2677 28.2913 28.0546L25.2937 25.0384C26.4479 24.1011 27.1877 22.6667 27.1877 21.0615C27.1877 20.4547 27.0818 19.8726 26.888 19.3322H28.4375C29.2992 19.3322 30 18.6269 30 17.7601ZM22.1095 25.3848C19.7403 25.3848 17.8127 23.4453 17.8127 21.0615C17.8127 18.6777 19.7403 16.7382 22.1095 16.7382C24.4788 16.7382 26.4064 18.6777 26.4064 21.0615C26.4064 23.4453 24.4789 25.3848 22.1095 25.3848Z" fill="white"/>
<path d="M26.9148 24.5677C26.8422 24.6408 26.8004 24.7421 26.8004 24.8456C26.8004 24.9489 26.8422 25.0502 26.9148 25.1235C26.9879 25.1965 27.0883 25.2386 27.191 25.2386C27.2937 25.2386 27.3946 25.1965 27.4672 25.1235C27.5403 25.0502 27.5816 24.9489 27.5816 24.8456C27.5816 24.7421 27.5403 24.6408 27.4672 24.5677C27.3946 24.4946 27.2942 24.4526 27.191 24.4526C27.0883 24.4526 26.9875 24.4946 26.9148 24.5677Z" fill="white"/>
</svg>
