<svg width="40" height="40" viewBox="0 0 40 40" fill="none" xmlns="http://www.w3.org/2000/svg">
<rect width="40" height="40" rx="4" fill="#151515"/>
<path d="M20 13.0789C15.7947 13.0789 12.3733 16.4658 12.3733 20.6287C12.3733 24.7919 15.7947 28.1788 20 28.1788C24.2055 28.1788 27.6267 24.7919 27.6267 20.6287C27.6267 16.4658 24.2053 13.0789 20 13.0789ZM20 26.8105C16.5569 26.8105 13.7558 24.0374 13.7558 20.629C13.7558 17.2206 16.5569 14.4477 20 14.4477C23.4431 14.4477 26.2442 17.2206 26.2442 20.629C26.2442 24.0376 23.4431 26.8105 20 26.8105Z" fill="white"/>
<path d="M22.1198 20.4007H20.2765V17.7548C20.2765 17.3768 19.9671 17.0705 19.5853 17.0705C19.2035 17.0705 18.894 17.3768 18.894 17.7548V21.085C18.894 21.4629 19.2035 21.7692 19.5853 21.7692H22.1198C22.5016 21.7692 22.8111 21.4629 22.8111 21.085C22.811 20.707 22.5016 20.4007 22.1198 20.4007Z" fill="white"/>
<path d="M16.0846 25.5261C15.8007 25.2732 15.3636 25.2962 15.1083 25.577L13.0346 27.8579C12.7791 28.1387 12.8023 28.5714 13.086 28.8241C13.218 28.9421 13.3834 29 13.5482 29C13.7374 29 13.9258 28.9236 14.0623 28.7733L16.136 26.4924C16.3915 26.2116 16.3682 25.7788 16.0846 25.5261Z" fill="white"/>
<path d="M26.9656 27.8581L24.8919 25.5772C24.637 25.2962 24.1997 25.2734 23.9158 25.5264C23.632 25.7791 23.6092 26.2118 23.8645 26.4926L25.9382 28.7735C26.0744 28.9236 26.2629 29 26.452 29C26.6166 29 26.782 28.9421 26.9143 28.8244C27.1981 28.5716 27.2209 28.1389 26.9656 27.8581Z" fill="white"/>
<path d="M15.9673 11.9973C14.5938 10.6659 12.3798 10.668 11.0321 12.0023C10.3616 12.6658 9.9952 13.5438 10 14.4744C10.0051 15.3938 10.3733 16.2546 11.0372 16.8983C11.1717 17.0286 11.3461 17.0936 11.5208 17.0936C11.6977 17.0936 11.8747 17.0265 12.0095 16.8933L15.9726 12.9701C16.103 12.8408 16.1758 12.6654 16.1749 12.4827C16.174 12.2999 16.0993 12.1252 15.9673 11.9973ZM11.5966 15.3664C11.4581 15.0902 11.3841 14.7846 11.3825 14.4671C11.3795 13.905 11.6021 13.3731 12.0095 12.9698C12.4159 12.5677 12.9533 12.3668 13.4936 12.3668C13.8095 12.3668 14.1266 12.4354 14.4187 12.5727L11.5966 15.3664Z" fill="white"/>
<path d="M28.9679 12.0021C27.62 10.668 25.406 10.6657 24.0325 11.997C23.9007 12.125 23.8258 12.2997 23.8249 12.4824C23.8239 12.6651 23.897 12.8408 24.0274 12.9698L27.9905 16.893C28.1253 17.0267 28.3023 17.0935 28.4792 17.0935C28.6539 17.0935 28.8285 17.0285 28.9628 16.8978C29.6269 16.2544 29.9951 15.3936 30 14.4741C30.0048 13.5438 29.6382 12.6658 28.9679 12.0021ZM28.4034 15.3664L25.5813 12.5727C26.3735 12.2005 27.3465 12.3326 27.9905 12.9701C28.3979 13.3733 28.6205 13.905 28.6175 14.4673C28.6159 14.7846 28.5419 15.0904 28.4034 15.3664Z" fill="white"/>
</svg>
