<svg width="40" height="40" viewBox="0 0 40 40" fill="none" xmlns="http://www.w3.org/2000/svg">
<rect width="40" height="40" rx="4" fill="#151515"/>
<path d="M26.3119 10H13.6881C12.2058 10 11 11.1828 11 12.6367V30L17.9093 26.6113L24.8186 30V20.5859H29V12.6367C29 11.1828 27.7942 10 26.3119 10ZM23.6239 12.6367V28.1039L17.9093 25.3011L12.1947 28.1039V12.6367C12.1947 11.829 12.8646 11.1719 13.6881 11.1719H24.0779C23.7913 11.5911 23.6239 12.0952 23.6239 12.6367ZM27.8053 19.4141H24.8186V12.6367C24.8186 11.829 25.4885 11.1719 26.3119 11.1719C27.1354 11.1719 27.8053 11.829 27.8053 12.6367V19.4141Z" fill="white"/>
</svg>
