<svg width="40" height="40" viewBox="0 0 40 40" fill="none" xmlns="http://www.w3.org/2000/svg">
<rect width="40" height="40" rx="4" fill="#151515"/>
<path d="M27.4539 18.3451L19.9996 15.8741L12.5453 18.3451L10 22.3881L12.3432 23.1648V27.4621L19.9996 30L27.656 27.4621V23.1648L29.9991 22.3881L27.4539 18.3451ZM25.2078 18.8352L19.9996 20.5616L14.7914 18.8352L19.9996 17.1088L25.2078 18.8352ZM11.7888 21.7464L13.1805 19.5358L19.1052 21.4997L17.7135 23.7103L11.7888 21.7464ZM13.5151 23.5533L18.2162 25.1116L19.4137 23.2095V28.5712L13.5151 26.6159V23.5533ZM20.5856 28.5711V23.2095L21.783 25.1116L26.4841 23.5533V26.6159L20.5856 28.5711ZM22.2857 23.7104L20.894 21.4998L26.8187 19.5358L28.2104 21.7465L22.2857 23.7104Z" fill="white"/>
<path d="M19.4137 10H20.5856V13.9131H19.4137V10Z" fill="white"/>
<path d="M13.9026 11.7906L14.9175 11.2047L16.8741 14.5935L15.8592 15.1794L13.9026 11.7906Z" fill="white"/>
<path d="M23.1249 14.5939L25.0815 11.2051L26.0963 11.7911L24.1398 15.1798L23.1249 14.5939Z" fill="white"/>
</svg>
