<svg width="40" height="40" viewBox="0 0 40 40" fill="none" xmlns="http://www.w3.org/2000/svg">
<rect width="40" height="40" rx="4" fill="#151515"/>
<path d="M10 10V19.375H13.5156V18.2031H15.8984V26.4844H14.7266V30H25.2734V26.4844H24.1016V18.2031H26.4844V19.375H30V10H10ZM28.8281 18.2031H27.6562V17.0312H22.9297V27.6562H24.1016V28.8281H15.8984V27.6562H17.0703V17.0312H12.3438V18.2031H11.1719V11.1719H28.8281V18.2031Z" fill="white"/>
<path d="M18.2422 27.6562H21.7578V15.8594H27.6562V12.3438H12.3438V15.8594H18.2422V27.6562ZM13.5156 14.6875V13.5156H26.4844V14.6875H20.5859V26.4844H19.4141V14.6875H13.5156Z" fill="white"/>
</svg>
