<svg width="40" height="40" viewBox="0 0 40 40" fill="none" xmlns="http://www.w3.org/2000/svg">
<rect width="40" height="40" rx="4" fill="#151515"/>
<path d="M17.8663 22.0001H17.8668C17.8673 22.0001 17.8677 22 17.8682 22H24.2422C24.3991 22 24.5371 21.8816 24.5802 21.7099L25.9865 16.1099C26.0168 15.9892 25.9955 15.8594 25.9292 15.7592C25.8627 15.659 25.7588 15.6 25.6485 15.6H17.0555L16.8042 14.3132C16.7684 14.1302 16.6257 14 16.4609 14H14.3516C14.1574 14 14 14.1791 14 14.4C14 14.6209 14.1574 14.8 14.3516 14.8H16.179C16.2235 15.028 17.3816 20.9578 17.4482 21.299C17.0746 21.4838 16.8125 21.9076 16.8125 22.4C16.8125 23.0617 17.2857 23.6 17.8672 23.6H24.2422C24.4364 23.6 24.5938 23.4209 24.5938 23.2C24.5938 22.9791 24.4364 22.8 24.2422 22.8H17.8672C17.6734 22.8 17.5156 22.6205 17.5156 22.4C17.5156 22.1798 17.6728 22.0006 17.8663 22.0001ZM25.1824 16.4L23.977 21.2H18.1492L17.2117 16.4H25.1824Z" fill="white"/>
<path d="M17.5156 24.8C17.5156 25.4617 17.9888 26 18.5703 26C19.1519 26 19.625 25.4617 19.625 24.8C19.625 24.1383 19.1519 23.6 18.5703 23.6C17.9888 23.6 17.5156 24.1383 17.5156 24.8ZM18.5703 24.4C18.7641 24.4 18.9219 24.5795 18.9219 24.8C18.9219 25.0205 18.7641 25.2 18.5703 25.2C18.3765 25.2 18.2188 25.0205 18.2188 24.8C18.2188 24.5795 18.3765 24.4 18.5703 24.4Z" fill="white"/>
<path d="M22.4844 24.8C22.4844 25.4617 22.9575 26 23.5391 26C24.1206 26 24.5938 25.4617 24.5938 24.8C24.5938 24.1383 24.1206 23.6 23.5391 23.6C22.9575 23.6 22.4844 24.1383 22.4844 24.8ZM23.5391 24.4C23.7329 24.4 23.8906 24.5795 23.8906 24.8C23.8906 25.0205 23.7329 25.2 23.5391 25.2C23.3453 25.2 23.1875 25.0205 23.1875 24.8C23.1875 24.5795 23.3453 24.4 23.5391 24.4Z" fill="white"/>
<rect x="10.5" y="10.5" width="19" height="19" rx="1.5" stroke="white"/>
</svg>
