<svg width="40" height="40" viewBox="0 0 40 40" fill="none" xmlns="http://www.w3.org/2000/svg">
<rect width="40" height="40" rx="4" fill="#151515"/>
<path d="M12.8125 10C11.2617 10 10 11.2617 10 12.8125C10 14.3633 11.2617 15.625 12.8125 15.625C14.3633 15.625 15.625 14.3633 15.625 12.8125C15.625 11.2617 14.3633 10 12.8125 10ZM12.8125 14.375C11.9509 14.375 11.25 13.6741 11.25 12.8125C11.25 11.9509 11.9509 11.25 12.8125 11.25C13.6741 11.25 14.375 11.9509 14.375 12.8125C14.375 13.6741 13.6741 14.375 12.8125 14.375Z" fill="white"/>
<path d="M12.8125 17.1875C11.2617 17.1875 10 18.4492 10 20C10 21.5508 11.2617 22.8125 12.8125 22.8125C14.3633 22.8125 15.625 21.5508 15.625 20C15.625 18.4492 14.3633 17.1875 12.8125 17.1875ZM12.8125 21.5625C11.9509 21.5625 11.25 20.8616 11.25 20C11.25 19.1384 11.9509 18.4375 12.8125 18.4375C13.6741 18.4375 14.375 19.1384 14.375 20C14.375 20.8616 13.6741 21.5625 12.8125 21.5625Z" fill="white"/>
<path d="M12.8125 24.375C11.2617 24.375 10 25.6367 10 27.1875C10 28.7383 11.2617 30 12.8125 30C14.3633 30 15.625 28.7383 15.625 27.1875C15.625 25.6367 14.3633 24.375 12.8125 24.375ZM12.8125 28.75C11.9509 28.75 11.25 28.0491 11.25 27.1875C11.25 26.3259 11.9509 25.625 12.8125 25.625C13.6741 25.625 14.375 26.3259 14.375 27.1875C14.375 28.0491 13.6741 28.75 12.8125 28.75Z" fill="white"/>
<path d="M19.6875 15.625H27.1875C28.7383 15.625 30 14.3633 30 12.8125C30 11.2617 28.7383 10 27.1875 10H19.6875C18.1367 10 16.875 11.2617 16.875 12.8125C16.875 14.3633 18.1367 15.625 19.6875 15.625ZM19.6875 11.25H27.1875C28.0491 11.25 28.75 11.9509 28.75 12.8125C28.75 13.6741 28.0491 14.375 27.1875 14.375H19.6875C18.8259 14.375 18.125 13.6741 18.125 12.8125C18.125 11.9509 18.8259 11.25 19.6875 11.25Z" fill="white"/>
<path d="M27.1875 17.1875H19.6875C18.1367 17.1875 16.875 18.4492 16.875 20C16.875 21.5508 18.1367 22.8125 19.6875 22.8125H27.1875C28.7383 22.8125 30 21.5508 30 20C30 18.4492 28.7383 17.1875 27.1875 17.1875ZM27.1875 21.5625H19.6875C18.8259 21.5625 18.125 20.8616 18.125 20C18.125 19.1384 18.8259 18.4375 19.6875 18.4375H27.1875C28.0491 18.4375 28.75 19.1384 28.75 20C28.75 20.8616 28.0491 21.5625 27.1875 21.5625Z" fill="white"/>
<path d="M27.1875 24.375H19.6875C18.1367 24.375 16.875 25.6367 16.875 27.1875C16.875 28.7383 18.1367 30 19.6875 30H27.1875C28.7383 30 30 28.7383 30 27.1875C30 25.6367 28.7383 24.375 27.1875 24.375ZM27.1875 28.75H19.6875C18.8259 28.75 18.125 28.0491 18.125 27.1875C18.125 26.3259 18.8259 25.625 19.6875 25.625H27.1875C28.0491 25.625 28.75 26.3259 28.75 27.1875C28.75 28.0491 28.0491 28.75 27.1875 28.75Z" fill="white"/>
</svg>
