<svg width="40" height="40" viewBox="0 0 40 40" fill="none" xmlns="http://www.w3.org/2000/svg">
<rect width="40" height="40" rx="4" fill="#151515"/>
<path d="M29.2861 10C29.1752 9.99996 29.0657 10.0257 28.9665 10.0753L23.5536 12.7824L17.4329 10.0618C17.4229 10.0575 17.4115 10.0568 17.4008 10.0525C17.3732 10.0422 17.345 10.0336 17.3165 10.0268C17.288 10.0191 17.2592 10.0131 17.23 10.0089C17.172 10.0041 17.1137 10.0041 17.0558 10.0089C17.0266 10.0131 16.9978 10.0191 16.9693 10.0268C16.9407 10.0336 16.9126 10.0422 16.885 10.0525C16.8743 10.0568 16.8629 10.0575 16.8529 10.0618L10.4243 12.9189C10.1662 13.0335 9.99996 13.2894 10 13.5717V29.2857C10.0001 29.5274 10.1224 29.7526 10.325 29.8843C10.5276 30.0162 10.7832 30.0366 11.0043 29.9386L17.1429 27.21L23.2814 29.9386C23.2922 29.9428 23.3036 29.9386 23.3143 29.945C23.4872 30.0224 23.6857 30.0179 23.855 29.9329C23.8664 29.9279 23.8793 29.9329 23.8907 29.925L29.605 27.0679C29.8472 26.9469 30.0001 26.6994 30 26.4286V10.7146C30.0003 10.3201 29.6806 10.0002 29.2861 10ZM16.4286 25.9643L11.4286 28.1864V14.036L16.4286 11.8139V25.9643ZM22.8572 28.1864L17.8572 25.9643V11.8139L22.8572 14.036V28.1864ZM28.5715 25.9872L24.2858 28.13V14.0131L28.5715 11.8703V25.9872Z" fill="white"/>
</svg>
