<svg width="40" height="40" viewBox="0 0 40 40" fill="none" xmlns="http://www.w3.org/2000/svg">
<rect width="40" height="40" rx="4" fill="#151515"/>
<path d="M15.625 19.7273H14.375C14.0514 19.7273 13.7891 19.9889 13.7891 20.3117C13.7891 20.6344 14.0514 20.8961 14.375 20.8961H15.625C15.9486 20.8961 16.2109 20.6344 16.2109 20.3117C16.2109 19.9889 15.9486 19.7273 15.625 19.7273Z" fill="white"/>
<path d="M15.625 22.2208H14.375C14.0514 22.2208 13.7891 22.4824 13.7891 22.8052C13.7891 23.1279 14.0514 23.3896 14.375 23.3896H15.625C15.9486 23.3896 16.2109 23.1279 16.2109 22.8052C16.2109 22.4824 15.9486 22.2208 15.625 22.2208Z" fill="white"/>
<path d="M15.625 24.7143H14.375C14.0514 24.7143 13.7891 24.9759 13.7891 25.2987C13.7891 25.6215 14.0514 25.8831 14.375 25.8831H15.625C15.9486 25.8831 16.2109 25.6215 16.2109 25.2987C16.2109 24.9759 15.9486 24.7143 15.625 24.7143Z" fill="white"/>
<path d="M20.625 19.7273H19.375C19.0514 19.7273 18.7891 19.9889 18.7891 20.3117C18.7891 20.6344 19.0514 20.8961 19.375 20.8961H20.625C20.9486 20.8961 21.2109 20.6344 21.2109 20.3117C21.2109 19.9889 20.9486 19.7273 20.625 19.7273Z" fill="white"/>
<path d="M20.625 22.2208H19.375C19.0514 22.2208 18.7891 22.4824 18.7891 22.8052C18.7891 23.1279 19.0514 23.3896 19.375 23.3896H20.625C20.9486 23.3896 21.2109 23.1279 21.2109 22.8052C21.2109 22.4824 20.9486 22.2208 20.625 22.2208Z" fill="white"/>
<path d="M20.625 24.7143H19.375C19.0514 24.7143 18.7891 24.9759 18.7891 25.2987C18.7891 25.6215 19.0514 25.8831 19.375 25.8831H20.625C20.9486 25.8831 21.2109 25.6215 21.2109 25.2987C21.2109 24.9759 20.9486 24.7143 20.625 24.7143Z" fill="white"/>
<path d="M25.625 19.7273H24.375C24.0514 19.7273 23.7891 19.9889 23.7891 20.3117C23.7891 20.6344 24.0514 20.8961 24.375 20.8961H25.625C25.9486 20.8961 26.2109 20.6344 26.2109 20.3117C26.2109 19.9889 25.9486 19.7273 25.625 19.7273Z" fill="white"/>
<path d="M25.625 22.2208H24.375C24.0514 22.2208 23.7891 22.4824 23.7891 22.8052C23.7891 23.1279 24.0514 23.3896 24.375 23.3896H25.625C25.9486 23.3896 26.2109 23.1279 26.2109 22.8052C26.2109 22.4824 25.9486 22.2208 25.625 22.2208Z" fill="white"/>
<path d="M25.625 24.7143H24.375C24.0514 24.7143 23.7891 24.9759 23.7891 25.2987C23.7891 25.6215 24.0514 25.8831 24.375 25.8831H25.625C25.9486 25.8831 26.2109 25.6215 26.2109 25.2987C26.2109 24.9759 25.9486 24.7143 25.625 24.7143Z" fill="white"/>
<path d="M28.2422 12.5584H26.8359V11.5844C26.8359 11.2617 26.5736 11 26.25 11C25.9264 11 25.6641 11.2617 25.6641 11.5844V12.5584H20.5859V11.5844C20.5859 11.2617 20.3236 11 20 11C19.6764 11 19.4141 11.2617 19.4141 11.5844V12.5584H14.3359V11.5844C14.3359 11.2617 14.0736 11 13.75 11C13.4264 11 13.1641 11.2617 13.1641 11.5844V12.5584H11.7578C10.7886 12.5584 10 13.3449 10 14.3117V27.2468C10 28.2135 10.7886 29 11.7578 29H28.2422C29.2114 29 30 28.2135 30 27.2468C30 26.8695 30 14.6399 30 14.3117C30 13.3449 29.2114 12.5584 28.2422 12.5584ZM11.1719 14.3117C11.1719 13.9894 11.4347 13.7273 11.7578 13.7273H13.1641V14.7013C13.1641 15.0241 13.4264 15.2857 13.75 15.2857C14.0736 15.2857 14.3359 15.0241 14.3359 14.7013V13.7273H19.4141V14.7013C19.4141 15.0241 19.6764 15.2857 20 15.2857C20.3236 15.2857 20.5859 15.0241 20.5859 14.7013V13.7273H25.6641V14.7013C25.6641 15.0241 25.9264 15.2857 26.25 15.2857C26.5736 15.2857 26.8359 15.0241 26.8359 14.7013V13.7273H28.2422C28.5653 13.7273 28.8281 13.9894 28.8281 14.3117V16.6104H11.1719V14.3117ZM28.2422 27.8312H11.7578C11.4347 27.8312 11.1719 27.569 11.1719 27.2468V17.7792H28.8281V27.2468C28.8281 27.569 28.5653 27.8312 28.2422 27.8312Z" fill="white"/>
</svg>
