<svg width="40" height="40" viewBox="0 0 40 40" fill="none" xmlns="http://www.w3.org/2000/svg">
<rect width="40" height="40" rx="4" fill="#151515"/>
<path d="M27.063 12.937C25.169 11.043 22.6607 10 20 10C17.3393 10 14.831 11.043 12.937 12.937C11.043 14.831 10 17.3393 10 20C10 22.6607 11.043 25.169 12.937 27.063C14.831 28.957 17.3393 30 20 30C22.6607 30 25.169 28.957 27.063 27.063C28.957 25.169 30 22.6607 30 20C30 17.3393 28.957 14.831 27.063 12.937ZM20 28.8281C15.1321 28.8281 11.1719 24.8679 11.1719 20C11.1719 15.1321 15.1321 11.1719 20 11.1719C24.8679 11.1719 28.8281 15.1321 28.8281 20C28.8281 24.8679 24.8679 28.8281 20 28.8281Z" fill="white"/>
<path d="M20 12.3828C15.7999 12.3828 12.3828 15.7999 12.3828 20C12.3828 24.2001 15.7999 27.6172 20 27.6172C24.2001 27.6172 27.6172 24.2001 27.6172 20C27.6172 15.7999 24.2001 12.3828 20 12.3828ZM20 26.4453C16.4461 26.4453 13.5547 23.5539 13.5547 20C13.5547 16.4461 16.4461 13.5547 20 13.5547C23.5539 13.5547 26.4453 16.4461 26.4453 20C26.4453 23.5539 23.5539 26.4453 20 26.4453Z" fill="white"/>
<path d="M21.7578 18.2363C21.7578 18.5598 22.0202 18.8222 22.3438 18.8222C22.6673 18.8222 22.9297 18.5598 22.9297 18.2363C22.9297 17.5873 22.5941 16.9634 22.0088 16.5245C21.6091 16.2247 21.1173 16.0245 20.5859 15.9393V15.3065C20.5859 14.9829 20.3236 14.7206 20 14.7206C19.6764 14.7206 19.4141 14.9829 19.4141 15.3065V15.9393C18.8827 16.0245 18.3909 16.2247 17.9912 16.5245C17.4059 16.9634 17.0703 17.5873 17.0703 18.2363C17.0703 18.8852 17.4059 19.509 17.9912 19.948C18.3909 20.2478 18.8827 20.448 19.4141 20.5332V22.8539C18.7391 22.6889 18.2422 22.2509 18.2422 21.7519C18.2422 21.4283 17.9798 21.1659 17.6562 21.1659C17.3327 21.1659 17.0703 21.4283 17.0703 21.7519C17.0703 22.4008 17.4059 23.0246 17.9912 23.4636C18.3909 23.7634 18.8827 23.9637 19.4141 24.0489V24.6875C19.4141 25.0111 19.6764 25.2734 20 25.2734C20.3236 25.2734 20.5859 25.0111 20.5859 24.6875V24.0489C21.1173 23.9637 21.6091 23.7634 22.0088 23.4636C22.5941 23.0247 22.9297 22.4008 22.9297 21.7519C22.9297 21.103 22.5941 20.4791 22.0088 20.0402C21.6091 19.7404 21.1173 19.5401 20.5859 19.4549V17.1342C21.2609 17.2992 21.7578 17.7372 21.7578 18.2363ZM18.2422 18.2363C18.2422 17.7372 18.7391 17.2992 19.4141 17.1342V19.3382C18.7391 19.1733 18.2422 18.7353 18.2422 18.2363ZM21.7578 21.7519C21.7578 22.2509 21.2609 22.6889 20.5859 22.8539V20.6499C21.2609 20.8148 21.7578 21.2529 21.7578 21.7519Z" fill="white"/>
</svg>
