<svg width="40" height="40" viewBox="0 0 40 40" fill="none" xmlns="http://www.w3.org/2000/svg">
<rect width="40" height="40" rx="4" fill="#151515"/>
<path d="M29.3056 19.3103H17.1528C16.7692 19.3103 16.4583 19.6191 16.4583 20C16.4583 20.3809 16.7692 20.6897 17.1528 20.6897H29.3056C29.6891 20.6897 30 20.3809 30 20C30 19.6191 29.6891 19.3103 29.3056 19.3103Z" fill="white"/>
<path d="M11.7361 21.7241C12.6949 21.7241 13.4722 20.9522 13.4722 20C13.4722 19.0478 12.6949 18.2759 11.7361 18.2759C10.7773 18.2759 10 19.0478 10 20C10 20.9522 10.7773 21.7241 11.7361 21.7241Z" fill="white"/>
<path d="M17.1528 12.4138H29.3056C29.6891 12.4138 30 12.105 30 11.7241C30 11.3432 29.6891 11.0345 29.3056 11.0345H17.1528C16.7692 11.0345 16.4583 11.3432 16.4583 11.7241C16.4583 12.105 16.7693 12.4138 17.1528 12.4138Z" fill="white"/>
<path d="M11.7361 13.4482C12.6949 13.4482 13.4722 12.6763 13.4722 11.7241C13.4722 10.7719 12.6949 10 11.7361 10C10.7773 10 10 10.7719 10 11.7241C10 12.6763 10.7773 13.4482 11.7361 13.4482Z" fill="white"/>
<path d="M29.3056 27.5862H17.1528C16.7692 27.5862 16.4583 27.895 16.4583 28.2759C16.4583 28.6568 16.7692 28.9655 17.1528 28.9655H29.3056C29.6891 28.9655 30 28.6568 30 28.2759C30 27.895 29.6891 27.5862 29.3056 27.5862Z" fill="white"/>
<path d="M11.7361 30C12.6949 30 13.4722 29.2281 13.4722 28.2759C13.4722 27.3237 12.6949 26.5518 11.7361 26.5518C10.7773 26.5518 10 27.3237 10 28.2759C10 29.2281 10.7773 30 11.7361 30Z" fill="white"/>
</svg>
