<svg width="40" height="40" viewBox="0 0 40 40" fill="none" xmlns="http://www.w3.org/2000/svg">
<rect width="40" height="40" rx="4" fill="#151515"/>
<path d="M15.4438 23.0002H15.4447C15.4455 23.0002 15.4462 23 15.447 23H26.0703C26.3319 23 26.5618 22.8223 26.6337 22.5648L28.9775 14.1648C29.028 13.9838 28.9926 13.7891 28.8819 13.6388C28.7712 13.4884 28.598 13.4 28.4141 13.4H14.0925L13.6736 11.4698C13.614 11.1953 13.3762 11 13.1016 11H9.58594C9.2623 11 9 11.2686 9 11.6C9 11.9314 9.2623 12.2 9.58594 12.2H12.6316C12.7058 12.542 14.636 21.4367 14.7471 21.9484C14.1244 22.2256 13.6875 22.8614 13.6875 23.6C13.6875 24.5925 14.4761 25.4 15.4453 25.4H26.0703C26.394 25.4 26.6563 25.1314 26.6563 24.8C26.6563 24.4686 26.394 24.2 26.0703 24.2H15.4453C15.1223 24.2 14.8594 23.9308 14.8594 23.6C14.8594 23.2697 15.1214 23.0009 15.4438 23.0002ZM27.6373 14.6L25.6283 21.8H15.9153L14.3528 14.6H27.6373Z" fill="white"/>
<path d="M14.8594 27.2C14.8594 28.1925 15.648 29 16.6172 29C17.5864 29 18.375 28.1925 18.375 27.2C18.375 26.2075 17.5864 25.4 16.6172 25.4C15.648 25.4 14.8594 26.2075 14.8594 27.2ZM16.6172 26.6C16.9402 26.6 17.2031 26.8692 17.2031 27.2C17.2031 27.5308 16.9402 27.8 16.6172 27.8C16.2942 27.8 16.0313 27.5308 16.0313 27.2C16.0313 26.8692 16.2942 26.6 16.6172 26.6Z" fill="white"/>
<path d="M23.1406 27.2C23.1406 28.1925 23.9292 29 24.8985 29C25.8677 29 26.6563 28.1925 26.6563 27.2C26.6563 26.2075 25.8677 25.4 24.8985 25.4C23.9292 25.4 23.1406 26.2075 23.1406 27.2ZM24.8985 26.6C25.2215 26.6 25.4844 26.8692 25.4844 27.2C25.4844 27.5308 25.2215 27.8 24.8985 27.8C24.5754 27.8 24.3125 27.5308 24.3125 27.2C24.3125 26.8692 24.5754 26.6 24.8985 26.6Z" fill="white"/>
</svg>
