<svg width="40" height="40" viewBox="0 0 40 40" fill="none" xmlns="http://www.w3.org/2000/svg">
<rect width="40" height="40" rx="4" fill="#151515"/>
<path d="M15.2092 20.8333C15.0075 20.8333 14.8092 20.7358 14.6883 20.555L13.4383 18.68C13.2983 18.47 13.2983 18.1967 13.4383 17.9867L14.6883 16.1117C14.8792 15.8242 15.2675 15.7467 15.555 15.9383C15.8425 16.13 15.92 16.5175 15.7283 16.805L14.7092 18.3333L15.7283 19.8617C15.9192 20.1492 15.8425 20.5367 15.555 20.7283C15.4483 20.7992 15.3283 20.8333 15.2092 20.8333Z" fill="white"/>
<path d="M24.7908 20.8333C24.6717 20.8333 24.5517 20.7992 24.445 20.7283C24.1575 20.5367 24.08 20.1492 24.2717 19.8617L25.2908 18.3333L24.2717 16.805C24.0808 16.5175 24.1575 16.13 24.445 15.9383C24.7333 15.7467 25.1208 15.8242 25.3117 16.1117L26.5617 17.9867C26.7017 18.1967 26.7017 18.47 26.5617 18.68L25.3117 20.555C25.1908 20.7358 24.9925 20.8333 24.7908 20.8333Z" fill="white"/>
<path d="M15.8333 26.875C15.2592 26.875 14.7917 26.4075 14.7917 25.8333C14.7917 25.2592 15.2592 24.7917 15.8333 24.7917C16.4075 24.7917 16.875 25.2592 16.875 25.8333C16.875 26.4075 16.4075 26.875 15.8333 26.875ZM15.8333 25.625C15.7183 25.625 15.625 25.7183 15.625 25.8333C15.625 26.0625 16.0417 26.0625 16.0417 25.8333C16.0417 25.7183 15.9483 25.625 15.8333 25.625Z" fill="white"/>
<path d="M20 26.875C19.4258 26.875 18.9583 26.4075 18.9583 25.8333C18.9583 25.2592 19.4258 24.7917 20 24.7917C20.5742 24.7917 21.0417 25.2592 21.0417 25.8333C21.0417 26.4075 20.5742 26.875 20 26.875ZM20 25.625C19.885 25.625 19.7917 25.7183 19.7917 25.8333C19.7917 26.0625 20.2083 26.0625 20.2083 25.8333C20.2083 25.7183 20.115 25.625 20 25.625Z" fill="white"/>
<path d="M24.1667 26.875C23.5925 26.875 23.125 26.4075 23.125 25.8333C23.125 25.2592 23.5925 24.7917 24.1667 24.7917C24.7408 24.7917 25.2083 25.2592 25.2083 25.8333C25.2083 26.4075 24.7408 26.875 24.1667 26.875ZM24.1667 25.625C24.0517 25.625 23.9583 25.7183 23.9583 25.8333C23.9583 26.0625 24.375 26.0625 24.375 25.8333C24.375 25.7183 24.2817 25.625 24.1667 25.625Z" fill="white"/>
<path d="M27.7083 30H12.2917C11.0275 30 10 28.9725 10 27.7083V12.2917C10 11.0275 11.0275 10 12.2917 10H27.7083C28.9725 10 30 11.0275 30 12.2917V27.7083C30 28.9725 28.9725 30 27.7083 30ZM12.2917 11.25C11.7175 11.25 11.25 11.7175 11.25 12.2917V27.7083C11.25 28.2825 11.7175 28.75 12.2917 28.75H27.7083C28.2825 28.75 28.75 28.2825 28.75 27.7083V12.2917C28.75 11.7175 28.2825 11.25 27.7083 11.25H12.2917Z" fill="white"/>
</svg>
