<svg width="40" height="40" viewBox="0 0 40 40" fill="none" xmlns="http://www.w3.org/2000/svg">
<rect width="40" height="40" rx="4" fill="#151515"/>
<path d="M19.4133 27.0605V29.4141C19.4133 29.7377 19.6756 30 19.9992 30H29.4133C29.7368 30 29.9992 29.7377 29.9992 29.4141V27.0605C29.9992 26.737 29.7368 26.4746 29.4133 26.4746H19.9992C19.6756 26.4746 19.4133 26.737 19.4133 27.0605ZM20.5851 27.6465H28.8273V28.8281H20.5851V27.6465Z" fill="white"/>
<path d="M10.5154 27.6421C10.8591 27.9857 11.3105 28.1576 11.7619 28.1576C12.2132 28.1576 12.6646 27.9858 13.0083 27.6421L20.0828 20.5676L20.9183 21.4031L20.5006 21.8209C20.2717 22.0497 20.2717 22.4207 20.5006 22.6495L22.1648 24.3138C22.2792 24.4282 22.4292 24.4854 22.5791 24.4854C22.729 24.4854 22.879 24.4282 22.9934 24.3138L27.986 19.3212C28.2148 19.0923 28.2148 18.7214 27.986 18.4925L26.3217 16.8283C26.0929 16.5995 25.7219 16.5995 25.4931 16.8283L25.0753 17.2461L20.9114 13.0822L21.3292 12.6644C21.4391 12.5545 21.5008 12.4055 21.5008 12.2501C21.5008 12.0947 21.4391 11.9457 21.3292 11.8358L19.665 10.1716C19.4362 9.94278 19.0652 9.94282 18.8364 10.1716L13.8438 15.1642C13.615 15.393 13.615 15.764 13.8438 15.9928L15.508 17.657C15.6179 17.7669 15.7669 17.8286 15.9223 17.8286C16.0777 17.8286 16.2268 17.7669 16.3366 17.657L16.7544 17.2392L17.59 18.0748L10.5154 25.1493C9.82818 25.8366 9.82818 26.9548 10.5154 27.6421ZM20.0863 12.2501L15.9223 16.414L15.0868 15.5785L19.2507 11.4146L20.0863 12.2501ZM21.7435 22.2352L25.9074 18.0713L26.743 18.9069L22.5791 23.0708L21.7435 22.2352ZM21.747 20.5745L17.5831 16.4106L20.0828 13.9109L24.2467 18.0748L21.747 20.5745ZM11.3441 25.9779L18.4186 18.9034L19.2542 19.739L12.1797 26.8135C11.9493 27.0438 11.5745 27.0438 11.3441 26.8135C11.1137 26.5831 11.1137 26.2083 11.3441 25.9779Z" fill="white"/>
</svg>
