<svg width="40" height="40" viewBox="0 0 40 40" fill="none" xmlns="http://www.w3.org/2000/svg">
<rect width="40" height="40" rx="4" fill="#151515"/>
<path d="M29.2857 10H10.7143C10.3198 10 10 10.3198 10 10.7143V14.2857C10 14.4881 10.086 14.681 10.2364 14.8164L17.1429 21.0321V29.2857C17.1427 29.6802 17.4623 30.0001 17.8568 30.0003C17.9678 30.0003 18.0772 29.9746 18.1764 29.925L22.4621 27.7821C22.7043 27.6611 22.8573 27.4136 22.8571 27.1428V21.0321L29.7636 14.8179C29.9144 14.6821 30.0004 14.4886 30 14.2857V10.7143C30 10.3198 29.6802 10 29.2857 10ZM28.5714 13.9678L21.665 20.1821C21.5141 20.3178 21.4282 20.5113 21.4286 20.7143V26.7014L18.5714 28.1299V20.7143C18.5714 20.5119 18.4854 20.319 18.335 20.1836L11.4286 13.9678V11.4286H28.5714V13.9678Z" fill="white"/>
</svg>
