<svg width="40" height="40" viewBox="0 0 40 40" fill="none" xmlns="http://www.w3.org/2000/svg">
<rect width="40" height="40" rx="4" fill="#151515"/>
<path d="M30.5575 19.019C30.4833 18.4748 30.2112 18.0047 29.7659 17.6831C28.8753 17.0152 27.5889 17.1884 26.921 18.079L26.6241 18.4748V12.0676C26.6241 11.9439 26.5747 11.8449 26.5005 11.7707L23.8535 9.12369C23.7792 9.04948 23.6555 9 23.5566 9H10.4453C10.1979 9 10 9.19791 10 9.44529V30.7945C10 31.0418 10.1979 31.2397 10.4453 31.2397H26.2036C26.451 31.2397 26.6489 31.0418 26.6489 30.7945V25.2283L30.1865 20.5281C30.4833 20.0828 30.6318 19.5385 30.5575 19.019V19.019ZM23.9771 10.4843L25.1398 11.647H23.9771V10.4843ZM25.7583 30.3492H10.8658V9.86584H23.1113V12.0676C23.1113 12.3149 23.3092 12.5128 23.5566 12.5128H25.7583V19.6127L21.7507 24.9562C21.7012 25.0057 21.6765 25.1541 21.6765 25.1541C21.6765 25.1541 21.2559 27.7022 21.1322 28.5433C21.058 28.9638 21.5033 29.1123 21.7507 29.0133C22.5176 28.6422 24.843 27.5537 24.843 27.5537C24.843 27.5537 24.9667 27.4795 25.0162 27.43L25.783 26.4158L25.7583 30.3492ZM22.3939 25.9952L23.804 27.059L22.097 27.8753L22.3939 25.9952ZM29.4691 20.0086L24.5461 26.5395L22.6908 25.1294L27.6137 18.5985C28.0095 18.079 28.7269 17.98 29.2464 18.3758C29.7659 18.7469 29.8649 19.489 29.4691 20.0086V20.0086Z" fill="white"/>
<path d="M14.3045 13.5024C13.5128 13.5024 12.8449 14.1456 12.8449 14.9619C12.8449 15.7783 13.4881 16.4215 14.3045 16.4215C15.1208 16.4215 15.764 15.7783 15.764 14.9619C15.764 14.1456 15.1208 13.5024 14.3045 13.5024ZM14.3045 15.5309C13.9829 15.5309 13.7108 15.2588 13.7108 14.9372C13.7108 14.6156 13.9829 14.3435 14.3045 14.3435C14.6261 14.3435 14.8982 14.6156 14.8982 14.9372C14.8982 15.2588 14.6261 15.5309 14.3045 15.5309Z" fill="white"/>
<path d="M17.1494 15.3825H23.334C23.5813 15.3825 23.7792 15.1846 23.7792 14.9372C23.7792 14.6898 23.5813 14.4919 23.334 14.4919H17.1494C16.902 14.4919 16.7041 14.6898 16.7041 14.9372C16.7041 15.1846 16.9267 15.3825 17.1494 15.3825Z" fill="white"/>
<path d="M14.3045 17.6337C13.5128 17.6337 12.8449 18.2769 12.8449 19.0932C12.8449 19.9096 13.4881 20.5528 14.3045 20.5528C15.1208 20.5528 15.764 19.9096 15.764 19.0932C15.764 18.2769 15.1208 17.6337 14.3045 17.6337ZM14.3045 19.6869C13.9829 19.6869 13.7108 19.4148 13.7108 19.0932C13.7108 18.7716 13.9829 18.4995 14.3045 18.4995C14.6261 18.4995 14.8982 18.7716 14.8982 19.0932C14.8982 19.4148 14.6261 19.6622 14.3045 19.6869Z" fill="white"/>
<path d="M17.1494 19.5138H23.334C23.5813 19.5138 23.7792 19.3159 23.7792 19.0685C23.7792 18.8211 23.5813 18.6232 23.334 18.6232H17.1494C16.902 18.6232 16.7041 18.8211 16.7041 19.0685C16.7041 19.3159 16.9267 19.5138 17.1494 19.5138Z" fill="white"/>
<path d="M14.3045 21.7897C13.5128 21.7897 12.8449 22.4329 12.8449 23.2493C12.8449 24.0656 13.4881 24.7088 14.3045 24.7088C15.1208 24.7088 15.764 24.0656 15.764 23.2493C15.764 22.4329 15.1208 21.7897 14.3045 21.7897ZM14.3045 23.8182C13.9829 23.8182 13.7108 23.5461 13.7108 23.2245C13.7108 22.9029 13.9829 22.6308 14.3045 22.6308C14.6261 22.6308 14.8982 22.9029 14.8982 23.2245C14.8982 23.5461 14.6261 23.8182 14.3045 23.8182Z" fill="white"/>
<path d="M17.1494 23.6698H21.1075C21.3549 23.6698 21.5528 23.4719 21.5528 23.2245C21.5528 22.9771 21.3549 22.7792 21.1075 22.7792H17.1494C16.902 22.7792 16.7041 22.9771 16.7041 23.2245C16.7041 23.4719 16.9267 23.6698 17.1494 23.6698Z" fill="white"/>
<path d="M14.3045 25.921C13.5128 25.921 12.8449 26.5642 12.8449 27.3806C12.8449 28.1969 13.4881 28.8401 14.3045 28.8401C15.1208 28.8401 15.764 28.1969 15.764 27.3806C15.764 26.5642 15.1208 25.921 14.3045 25.921ZM14.3045 27.9743C13.9829 27.9743 13.7108 27.7022 13.7108 27.3806C13.7108 27.059 13.9829 26.7868 14.3045 26.7868C14.6261 26.7868 14.8982 27.059 14.8982 27.3806C14.8982 27.7022 14.6261 27.9495 14.3045 27.9743Z" fill="white"/>
<path d="M19.6479 26.9353H17.1741C16.9267 26.9353 16.7288 27.1332 16.7288 27.3806C16.7288 27.6279 16.9267 27.8259 17.1741 27.8259H19.6479C19.8953 27.8259 20.0932 27.6279 20.0932 27.3806C20.0932 27.1332 19.8706 26.9353 19.6479 26.9353Z" fill="white"/>
</svg>
