<svg width="40" height="40" viewBox="0 0 40 40" fill="none" xmlns="http://www.w3.org/2000/svg">
<rect width="40" height="40" rx="4" fill="#151515"/>
<path d="M29.0357 20.2591C28.9519 20.0944 28.9519 19.9056 29.0357 19.741L29.8131 18.215C30.2459 17.3654 29.903 16.3527 29.0324 15.9095L27.4687 15.1134C27.3 15.0275 27.1844 14.8747 27.1514 14.6943L26.8455 13.0213C26.6753 12.0898 25.7773 11.4639 24.8016 11.5963L23.0489 11.8342C22.8598 11.8599 22.6727 11.8015 22.5355 11.6741L21.2633 10.4932C20.5549 9.83562 19.4451 9.83558 18.7368 10.4932L17.4645 11.6742C17.3273 11.8017 17.1402 11.8599 16.9511 11.8343L15.1984 11.5965C14.2224 11.4639 13.3247 12.0899 13.1545 13.0214L12.8486 14.6943C12.8156 14.8748 12.7 15.0276 12.5313 15.1135L10.9677 15.9095C10.0971 16.3527 9.75411 17.3655 10.1869 18.2151L10.9643 19.7411C11.0481 19.9057 11.0481 20.0945 10.9643 20.2591L10.1869 21.7851C9.75407 22.6347 10.097 23.6474 10.9676 24.0906L12.5313 24.8867C12.7 24.9726 12.8156 25.1254 12.8486 25.3058L13.1545 26.9788C13.3095 27.8267 14.0672 28.4214 14.9381 28.4213C15.0239 28.4213 15.111 28.4156 15.1984 28.4037L16.9511 28.1658C17.1401 28.1401 17.3273 28.1985 17.4646 28.3259L18.7368 29.5068C19.091 29.8357 19.5454 30 20 30C20.4544 30 20.9091 29.8356 21.2632 29.5068L22.5355 28.3259C22.6727 28.1985 22.8598 28.1403 23.0489 28.1658L24.8016 28.4037C25.7777 28.5362 26.6753 27.9102 26.8455 26.9787L27.1514 25.3058C27.1844 25.1254 27.3001 24.9726 27.4687 24.8867L29.0324 24.0906C29.903 23.6474 30.2459 22.6347 29.8131 21.785L29.0357 20.2591ZM28.4689 23.0716L26.9053 23.8677C26.4067 24.1216 26.0648 24.573 25.9673 25.1065L25.6615 26.7794C25.6039 27.0946 25.3003 27.3062 24.97 27.2615L23.2173 27.0236C22.6584 26.9477 22.1053 27.1203 21.6996 27.4968L20.4274 28.6777C20.1878 28.9001 19.8123 28.9001 19.5726 28.6777L18.3004 27.4967C17.9575 27.1785 17.5093 27.006 17.0414 27.006C16.9557 27.006 16.8692 27.0118 16.7827 27.0236L15.03 27.2615C14.7 27.3062 14.3961 27.0945 14.3385 26.7794L14.0326 25.1064C13.9351 24.573 13.5932 24.1214 13.0947 23.8676L11.531 23.0716C11.2364 22.9216 11.1204 22.579 11.2668 22.2915L12.0442 20.7656C12.2921 20.279 12.2921 19.721 12.0442 19.2344L11.2668 17.7085C11.1204 17.421 11.2364 17.0784 11.531 16.9284L13.0947 16.1323C13.5932 15.8785 13.9351 15.427 14.0326 14.8936L14.3384 13.2206C14.3961 12.9055 14.6997 12.6938 15.0299 12.7385L16.7826 12.9764C17.3413 13.0523 17.8946 12.8798 18.3003 12.5032L19.5726 11.3223C19.8122 11.0999 20.1876 11.0999 20.4273 11.3223L21.6995 12.5032C22.1052 12.8798 22.6584 13.0523 23.2172 12.9764L24.9699 12.7385C25.2999 12.6937 25.6038 12.9055 25.6614 13.2206L25.9672 14.8936C26.0648 15.427 26.4067 15.8786 26.9052 16.1323L28.4689 16.9284C28.7635 17.0784 28.8795 17.421 28.733 17.7085L27.9557 19.2344C27.7078 19.7209 27.7078 20.279 27.9557 20.7655L28.733 22.2915C28.8795 22.579 28.7635 22.9216 28.4689 23.0716Z" fill="white"/>
<path d="M24.3919 15.7858C24.1572 15.5606 23.7766 15.5606 23.5418 15.7858L15.608 23.3986C15.3733 23.6238 15.3733 23.989 15.608 24.2142C15.7254 24.3269 15.8792 24.3832 16.033 24.3832C16.1868 24.3832 16.3407 24.3269 16.458 24.2142L24.3919 16.6015C24.6267 16.3762 24.6267 16.0111 24.3919 15.7858Z" fill="white"/>
<path d="M17.5957 14.8092C16.3804 14.8092 15.3917 15.7579 15.3917 16.924C15.3917 18.0901 16.3804 19.0388 17.5957 19.0388C18.8109 19.0388 19.7996 18.0901 19.7996 16.924C19.7996 15.7579 18.8109 14.8092 17.5957 14.8092ZM17.5957 17.8853C17.0433 17.8853 16.5939 17.454 16.5939 16.924C16.5939 16.3939 17.0433 15.9627 17.5957 15.9627C18.148 15.9627 18.5975 16.3939 18.5975 16.924C18.5974 17.454 18.148 17.8853 17.5957 17.8853Z" fill="white"/>
<path d="M22.4043 20.9613C21.189 20.9613 20.2003 21.91 20.2003 23.0761C20.2003 24.2421 21.189 25.1908 22.4043 25.1908C23.6195 25.1908 24.6082 24.2421 24.6082 23.0761C24.6082 21.91 23.6195 20.9613 22.4043 20.9613ZM22.4043 24.0373C21.8519 24.0373 21.4024 23.6061 21.4024 23.0761C21.4024 22.546 21.8518 22.1148 22.4043 22.1148C22.9566 22.1148 23.406 22.546 23.406 23.0761C23.406 23.6061 22.9566 24.0373 22.4043 24.0373Z" fill="white"/>
</svg>
