<svg width="40" height="40" viewBox="0 0 40 40" fill="none" xmlns="http://www.w3.org/2000/svg">
<rect width="40" height="40" rx="4" fill="#151515"/>
<path d="M29.2848 10.7213C26.6445 8.08109 22.7017 7.27987 19.2399 8.68011C19.0599 8.75295 18.9731 8.95785 19.0459 9.13783C19.1187 9.3178 19.3236 9.40456 19.5035 9.33191C22.7032 8.03764 26.3474 8.77816 28.7876 11.2185C30.4074 12.8382 31.2994 14.9918 31.2994 17.2824C31.2994 19.573 30.4073 21.7265 28.7876 23.3463C27.5342 24.5997 25.9687 25.4163 24.2397 25.7236V24.8592C25.7384 24.5615 27.0978 23.8347 28.1869 22.7456C31.1993 19.7332 31.1993 14.8316 28.1869 11.8192C26.7277 10.3599 24.7875 9.55632 22.7237 9.55632C20.66 9.55632 18.7199 10.3599 17.2606 11.8192C15.8013 13.2785 14.9977 15.2187 14.9977 17.2824C14.9977 19.3461 15.8013 21.2863 17.2606 22.7455C18.3496 23.8346 19.7091 24.5614 21.2078 24.8591V25.7236C19.4788 25.4163 17.9133 24.5997 16.6599 23.3462C13.3163 20.0026 13.3163 14.5621 16.6599 11.2185C17.1528 10.7256 17.7022 10.2946 18.2929 9.93764C18.4591 9.8372 18.5124 9.62114 18.412 9.45494C18.3116 9.28889 18.0955 9.23555 17.9293 9.33594C17.2901 9.72228 16.6958 10.1884 16.1629 10.7213C13.0065 13.8777 12.6043 18.7609 14.9556 22.3578L13.6828 23.6306L13.6383 23.5861C13.4303 23.378 13.1537 23.2634 12.8595 23.2634C12.5653 23.2634 12.2887 23.378 12.0807 23.586L8.21855 27.4481C8.08132 27.5853 8.00577 27.7677 8.00577 27.9618C8.00577 28.1558 8.08132 28.3383 8.21855 28.4755L11.5307 31.7876C11.6723 31.9292 11.8583 32 12.0443 32C12.2304 32 12.4164 31.9291 12.558 31.7876L16.4201 27.9255C16.8494 27.4961 16.8494 26.7974 16.4201 26.3679L16.3755 26.3234L17.6462 25.0527C18.7178 25.7563 19.9222 26.2258 21.2079 26.4367V26.9858C21.2079 27.8217 21.8879 28.5017 22.7238 28.5017C23.5597 28.5017 24.2397 27.8217 24.2397 26.9858V26.4367C26.1599 26.1217 27.8987 25.2294 29.2848 23.8434C32.9025 20.2256 32.9025 14.3391 29.2848 10.7213V10.7213ZM14.0497 29.3016L10.7045 25.9564L11.7616 24.8993L15.1068 28.2446L14.0497 29.3016ZM12.0609 31.2904C12.0518 31.2996 12.0369 31.2996 12.0277 31.2904L8.71564 27.9783C8.71395 27.9766 8.7088 27.9715 8.7088 27.9618C8.7088 27.952 8.71395 27.9469 8.71564 27.9452L10.2074 26.4534L13.5526 29.7987L12.0609 31.2904ZM15.923 27.4284L15.604 27.7474L12.2588 24.4022L12.5778 24.0831C12.653 24.0078 12.7531 23.9665 12.8595 23.9665C12.9659 23.9665 13.0659 24.0079 13.1412 24.0832L15.6299 26.5719L15.6301 26.572L15.923 26.865C16.0783 27.0203 16.0783 27.2731 15.923 27.4284V27.4284ZM15.8784 25.8262L14.1799 24.1277L15.3684 22.9392C15.6104 23.2534 15.8751 23.5556 16.1628 23.8433C16.4493 24.1298 16.7511 24.3949 17.0662 24.6385L15.8784 25.8262ZM21.9109 19.9627H23.5366V20.8122H21.9109V19.9627ZM17.7577 22.2484C16.4313 20.9219 15.7007 19.1583 15.7007 17.2824C15.7007 15.4065 16.4313 13.6428 17.7577 12.3164C19.0842 10.9898 20.8479 10.2593 22.7238 10.2593C24.5997 10.2593 26.3634 10.9898 27.6899 12.3164C30.4282 15.0546 30.4282 19.5101 27.6899 22.2484C26.7334 23.2049 25.5472 23.8528 24.2398 24.1395V19.9627H25.1457C25.2938 20.4129 25.7179 20.739 26.217 20.739C26.7162 20.739 27.1403 20.4129 27.2885 19.9627H27.796C28.4033 19.9627 28.8974 19.4686 28.8974 18.8613V15.7035C28.8974 15.0961 28.4033 14.602 27.796 14.602H27.2885C27.1404 14.1518 26.7162 13.8257 26.2171 13.8257C25.7179 13.8257 25.2938 14.1518 25.1457 14.602H24.5915C24.3974 14.602 24.24 14.7594 24.24 14.9536C24.24 15.1477 24.3974 15.3051 24.5915 15.3051H25.0892V19.2596H20.3583V15.3051H23.1854C23.3796 15.3051 23.537 15.1477 23.537 14.9536C23.537 14.7594 23.3796 14.602 23.1854 14.602H20.302C20.1538 14.1518 19.7297 13.8257 19.2306 13.8257C18.7314 13.8257 18.3073 14.1518 18.1592 14.602H17.6517C17.0444 14.602 16.5503 15.0961 16.5503 15.7035V18.8613C16.5503 19.4686 17.0444 19.9627 17.6517 19.9627H18.1592C18.3073 20.4129 18.7315 20.739 19.2306 20.739C19.7298 20.739 20.1539 20.4129 20.302 19.9627H21.2079V24.1395C19.9003 23.8527 18.7142 23.2049 17.7577 22.2484V22.2484ZM26.6418 19.6112C26.6418 19.8454 26.4512 20.0359 26.217 20.0359C25.9828 20.0359 25.7922 19.8454 25.7922 19.6112V14.9536C25.7922 14.7193 25.9827 14.5287 26.217 14.5287C26.4512 14.5287 26.6418 14.7193 26.6418 14.9536V19.6112ZM27.7959 15.3051C28.0156 15.3051 28.1943 15.4838 28.1943 15.7035V18.8613C28.1943 19.0809 28.0156 19.2596 27.7959 19.2596H27.3448V15.3051H27.7959ZM18.8058 14.9536C18.8058 14.7193 18.9963 14.5287 19.2305 14.5287C19.4647 14.5287 19.6553 14.7193 19.6553 14.9536V19.6112C19.6553 19.8454 19.4648 20.0359 19.2305 20.0359C18.9963 20.0359 18.8058 19.8454 18.8058 19.6112V14.9536ZM17.6516 19.2596C17.432 19.2596 17.2533 19.0809 17.2533 18.8613V15.7035C17.2533 15.4838 17.432 15.3051 17.6516 15.3051H18.1028V19.2596H17.6516ZM22.7238 27.7987C22.2756 27.7987 21.9109 27.434 21.9109 26.9858V24.55C21.9109 24.5497 21.9109 24.5494 21.9109 24.549V21.5152H23.5367V26.9858C23.5367 27.434 23.172 27.7987 22.7238 27.7987Z" fill="white"/>
</svg>
