<svg width="40" height="40" viewBox="0 0 40 40" fill="none" xmlns="http://www.w3.org/2000/svg">
<rect width="40" height="40" rx="4" fill="#151515"/>
<path d="M18.4808 20.9668L16.5974 22.8502C16.4449 23.0027 16.4449 23.2501 16.5974 23.4026C16.6737 23.4789 16.7737 23.517 16.8736 23.517C16.9736 23.517 17.0736 23.4789 17.1498 23.4026L19.0332 21.5193C19.1857 21.3667 19.1857 21.1194 19.0332 20.9668C18.8807 20.8142 18.6333 20.8143 18.4808 20.9668Z" fill="white"/>
<path d="M22.8483 16.5992L20.9667 18.4809C20.8142 18.6334 20.8142 18.8807 20.9667 19.0333C21.043 19.1096 21.143 19.1477 21.2429 19.1477C21.3429 19.1477 21.4428 19.1096 21.5191 19.0333L23.4008 17.1517C23.5533 16.9991 23.5533 16.7518 23.4008 16.5992C23.2482 16.4467 23.001 16.4467 22.8483 16.5992Z" fill="white"/>
<path d="M28.2459 23.4393C27.4983 23.0077 26.6375 22.8675 25.7987 23.0364L22.7622 19.9999L25.8009 16.9612C26.0278 17.0062 26.2555 17.0281 26.4814 17.0281C27.7144 17.0281 28.8902 16.3755 29.5287 15.2696C30.1139 14.2559 30.1566 13.0217 29.6428 11.9682C29.4724 11.6188 29.2521 11.4369 28.988 11.4277C28.7281 11.4189 28.504 11.5755 28.3203 11.8938L27.7148 12.9425C27.6117 13.1212 27.5587 13.1212 27.471 13.1212H27.0219C26.7417 13.1212 26.6935 13.0934 26.5534 12.8507L26.3288 12.4618C26.2835 12.3832 26.2585 12.3399 26.3617 12.1613L26.9671 11.1126C27.1509 10.7942 27.1744 10.5213 27.037 10.3013C26.8969 10.0772 26.6295 9.97727 26.2414 10.0044C25.0722 10.0862 24.0247 10.7402 23.4395 11.754C23.0077 12.5017 22.8675 13.3625 23.0366 14.2013L20.0001 17.2378L16.9613 14.199C17.2521 12.7344 16.5783 11.2268 15.2698 10.4713C14.256 9.88606 13.0218 9.84337 11.9683 10.3572C11.6189 10.5276 11.437 10.7479 11.4278 11.012C11.4187 11.2713 11.5756 11.4959 11.8939 11.6797L12.9426 12.2852C13.1213 12.3883 13.1213 12.4383 13.1213 12.529V12.9781C13.1213 13.2583 13.0935 13.3065 12.8508 13.4466L12.4618 13.6712C12.3833 13.7165 12.34 13.7415 12.1613 13.6384L11.1126 13.0329C10.7943 12.8491 10.5213 12.8256 10.3013 12.963C10.0772 13.1031 9.97735 13.3707 10.0045 13.7586C10.0863 14.9278 10.7403 15.9754 11.754 16.5606C12.5017 16.9923 13.3625 17.1325 14.2013 16.9635L17.2378 20L14.199 23.0387C12.7345 22.748 11.2268 23.4217 10.4713 24.7302C9.88606 25.744 9.84336 26.9781 10.3572 28.0316C10.5276 28.3811 10.7479 28.563 11.012 28.5722C11.2716 28.5816 11.4959 28.4244 11.6797 28.106L12.2852 27.0574C12.3884 26.8787 12.4383 26.8787 12.529 26.8787H12.9782C13.2583 26.8787 13.3065 26.9065 13.4466 27.1492L13.6712 27.5381C13.7165 27.6167 13.7415 27.66 13.6384 27.8386L13.0329 28.8873C12.8491 29.2057 12.8256 29.4786 12.9631 29.6986C13.0881 29.8987 13.3149 29.9998 13.6383 29.9998C13.677 29.9998 13.7171 29.9984 13.7586 29.9955C14.9278 29.9137 15.9753 29.2596 16.5606 28.2459C16.9923 27.4982 17.1325 26.6374 16.9635 25.7986L19.9999 22.7622L23.0387 25.801C22.748 27.2656 23.4218 28.7732 24.7302 29.5287C25.2733 29.8422 25.8794 30 26.4873 30C27.0142 30 27.5425 29.8814 28.0316 29.6428C28.381 29.4724 28.5629 29.2521 28.5721 28.988C28.5812 28.7287 28.4244 28.5041 28.106 28.3203L27.0573 27.7148C26.8786 27.6117 26.8786 27.5617 26.8786 27.471V27.0219C26.8786 26.7417 26.9065 26.6935 27.1491 26.5534L27.5381 26.3288C27.6166 26.2835 27.6599 26.2585 27.8385 26.3616L28.8873 26.9671C29.2056 27.1509 29.4785 27.1744 29.6986 27.0369C29.9227 26.8969 30.0226 26.6292 29.9954 26.2414C29.9137 25.0721 29.2596 24.0246 28.2459 23.4393ZM14.6001 16.2574C14.5014 16.1586 14.3573 16.1201 14.2224 16.1564C13.5161 16.3465 12.7782 16.2498 12.1447 15.8841C11.3687 15.436 10.8637 14.6395 10.7873 13.7471L11.7708 14.315C12.0152 14.4561 12.3931 14.613 12.8525 14.3478L13.2415 14.1232C13.7234 13.8449 13.9026 13.5346 13.9026 12.9782V12.529C13.9025 11.9986 13.5776 11.7497 13.3333 11.6086L12.3497 11.0408C13.1608 10.6608 14.1032 10.6999 14.8791 11.1479C15.9489 11.7656 16.4733 13.0293 16.1544 14.221C16.1184 14.3558 16.1569 14.4996 16.2555 14.5982L19.4476 17.7902L18.8952 18.3426L17.1517 16.5991C16.9991 16.4466 16.7518 16.4466 16.5992 16.5991C16.4466 16.7517 16.4467 16.999 16.5992 17.1516L18.3427 18.8951L17.7902 19.4476L14.6001 16.2574ZM16.2574 25.3998C16.1586 25.4986 16.1201 25.6426 16.1564 25.7776C16.3465 26.4839 16.2498 27.2218 15.8841 27.8553C15.436 28.6312 14.6396 29.1363 13.7472 29.2127L14.315 28.2292C14.4561 27.9848 14.613 27.6068 14.3478 27.1475L14.1232 26.7585C13.845 26.2766 13.5347 26.0974 12.9783 26.0974H12.529C11.9987 26.0974 11.7497 26.4223 11.6086 26.6667L11.0408 27.6502C10.6608 26.8392 10.6999 25.8969 11.1479 25.1209C11.7656 24.0511 13.0292 23.5266 14.221 23.8456C14.3558 23.8816 14.4996 23.8431 14.5982 23.7445L23.7426 14.6001C23.8414 14.5013 23.8799 14.3573 23.8436 14.2224C23.6535 13.516 23.7502 12.7781 24.1159 12.1447C24.564 11.3687 25.3605 10.8637 26.2529 10.7872L25.685 11.7707C25.5439 12.0151 25.387 12.3931 25.6522 12.8524L25.8768 13.2414C26.155 13.7233 26.4653 13.9025 27.0218 13.9025H27.471C28.0014 13.9024 28.2503 13.5776 28.3914 13.3332L28.9592 12.3497C29.3392 13.1608 29.3001 14.103 28.8521 14.8791C28.2344 15.9488 26.9706 16.4732 25.779 16.1543C25.6442 16.1183 25.5004 16.1568 25.4018 16.2555L16.2574 25.3998ZM28.2292 25.685C27.9848 25.5439 27.6067 25.3871 27.1475 25.6522L26.7585 25.8768C26.2767 26.155 26.0975 26.4653 26.0975 27.0217V27.4709C26.0975 28.0013 26.4224 28.2502 26.6667 28.3914L27.6503 28.9592C26.8392 29.3392 25.8969 29.3001 25.1209 28.852C24.0511 28.2344 23.5267 26.9706 23.8456 25.7789C23.8817 25.6442 23.8432 25.5004 23.7445 25.4017L20.5524 22.2097L21.1049 21.6572L22.8502 23.4026C22.9265 23.4789 23.0265 23.517 23.1264 23.517C23.2264 23.517 23.3264 23.4788 23.4027 23.4026C23.5552 23.25 23.5552 23.0027 23.4027 22.8502L21.6573 21.1048L22.2097 20.5524L25.3999 23.7425C25.4986 23.8413 25.6426 23.8798 25.7776 23.8435C26.4838 23.6534 27.2218 23.7502 27.8553 24.1159C28.6313 24.564 29.1363 25.3604 29.2127 26.2528L28.2292 25.685Z" fill="white"/>
<path d="M20 19.6094H19.9997C19.784 19.6094 19.6093 19.7842 19.6093 20C19.6093 20.2157 19.7843 20.3906 20 20.3906C20.2158 20.3906 20.3906 20.2157 20.3906 20C20.3906 19.7842 20.2158 19.6094 20 19.6094Z" fill="white"/>
</svg>
