<svg width="40" height="40" viewBox="0 0 40 40" fill="none" xmlns="http://www.w3.org/2000/svg">
<rect width="40" height="40" rx="4" fill="#151515"/>
<path d="M23.0078 21.7182C23.2235 21.7182 23.3984 21.535 23.3984 21.3091C23.3984 21.0832 23.2235 20.9 23.0078 20.9C22.7921 20.9 22.6172 21.0832 22.6172 21.3091C22.6172 21.535 22.7921 21.7182 23.0078 21.7182Z" fill="white"/>
<path d="M12.1484 21.4318C11.7615 21.4318 11.4023 21.262 11.1371 20.9535C11.063 20.8674 10.9576 20.8182 10.8469 20.8182H10.3906C10.1749 20.8182 10 21.0014 10 21.2273V24.9091C10 25.135 10.1749 25.3182 10.3906 25.3178H13.5458C13.2259 25.7204 13.0469 26.2273 13.0469 26.75C13.0469 27.9906 14.0107 29 15.1953 29C16.38 29 17.3438 27.9906 17.3438 26.75C17.3438 26.2273 17.1647 25.72 16.8448 25.3178H23.1552C22.8353 25.72 22.6562 26.2273 22.6562 26.75C22.6562 27.9906 23.62 29 24.8047 29C25.9893 29 26.9531 27.9906 26.9531 26.75C26.9531 26.2273 26.7741 25.7204 26.4542 25.3182H29.6094C29.8251 25.3182 30 25.135 30 24.9091V21.2273C30 21.0014 29.8251 20.8182 29.6094 20.8182H29.1531C29.0424 20.8182 28.937 20.8674 28.8629 20.9535C28.5977 21.262 28.2385 21.4318 27.8516 21.4318C27.0977 21.4318 26.4844 20.7895 26.4844 20C26.4844 19.2105 27.0977 18.5682 27.8516 18.5682C28.2385 18.5682 28.5977 18.738 28.8629 19.0464C28.937 19.1326 29.0425 19.1818 29.1532 19.1818H29.6094C29.8251 19.1818 30 18.9986 30 18.7727V15.0909C30 14.865 29.8251 14.6818 29.6094 14.6818H26.4542C26.7741 14.2796 26.9531 13.7727 26.9531 13.25C26.9531 12.0093 25.9893 11 24.8047 11C23.62 11 22.6562 12.0093 22.6562 13.25C22.6562 13.7727 22.8353 14.2796 23.1552 14.6818C22.9772 14.6818 17.0228 14.6818 16.8448 14.6818C17.1647 14.2796 17.3437 13.7727 17.3437 13.25C17.3437 12.0093 16.3799 11 15.1953 11C14.0106 11 13.0469 12.0093 13.0469 13.25C13.0469 13.7727 13.2259 14.2796 13.5458 14.6818H10.3906C10.1749 14.6818 10 14.865 10 15.0909V18.7727C10 18.9986 10.1749 19.1818 10.3906 19.1818H10.8469C10.9576 19.1818 11.063 19.1326 11.1371 19.0464C11.4023 18.738 11.7615 18.5682 12.1484 18.5682C12.9023 18.5682 13.5156 19.2105 13.5156 20C13.5156 20.7895 12.9023 21.4318 12.1484 21.4318ZM12.1484 17.75C11.6493 17.75 11.1653 17.9375 10.7812 18.2725V15.5H14.0234C14.2391 15.5 14.4141 15.3168 14.4141 15.0909V14.6131C14.4141 14.4972 14.3671 14.3867 14.2848 14.3091C13.9903 14.0314 13.8281 13.6552 13.8281 13.25C13.8281 12.4605 14.4414 11.8182 15.1953 11.8182C15.9492 11.8182 16.5625 12.4605 16.5625 13.25C16.5625 13.6552 16.4003 14.0314 16.1058 14.3091C16.0236 14.3867 15.9766 14.4972 15.9766 14.6131V15.0909C15.9766 15.3168 16.1515 15.5 16.3672 15.5H19.6094V18.7727C19.6094 18.9986 19.7843 19.1818 20 19.1818H20.4562C20.567 19.1818 20.6724 19.1326 20.7465 19.0464C21.0117 18.738 21.3709 18.5682 21.7578 18.5682C22.3782 18.5682 22.9219 19.0063 23.0799 19.6336C23.1349 19.8521 23.3487 19.9823 23.5573 19.9248C23.7659 19.8672 23.8904 19.6434 23.8353 19.4249C23.5869 18.4387 22.7326 17.75 21.7578 17.75C21.2587 17.75 20.7747 17.9375 20.3906 18.2725V15.5H23.6328C23.8485 15.5 24.0234 15.3168 24.0234 15.0909V14.6131C24.0234 14.4972 23.9765 14.3867 23.8942 14.3091C23.5997 14.0314 23.4375 13.6552 23.4375 13.25C23.4375 12.4605 24.0508 11.8182 24.8047 11.8182C25.5586 11.8182 26.1719 12.4605 26.1719 13.25C26.1719 13.6552 26.0097 14.0314 25.7152 14.3091C25.6329 14.3867 25.5859 14.4972 25.5859 14.6131V15.0909C25.5859 15.3168 25.7609 15.5 25.9766 15.5H29.2188V18.2725C28.8347 17.9375 28.3507 17.75 27.8516 17.75C26.6669 17.75 25.7031 18.7593 25.7031 20C25.7031 21.2406 26.6669 22.25 27.8516 22.25C28.3507 22.25 28.8347 22.0625 29.2188 21.7275V24.5H25.9766C25.7609 24.5 25.5859 24.6832 25.5859 24.9091V25.3869C25.5859 25.5028 25.6329 25.6133 25.7152 25.6909C26.0097 25.9686 26.1719 26.3448 26.1719 26.75C26.1719 27.5395 25.5586 28.1818 24.8047 28.1818C24.0508 28.1818 23.4375 27.5395 23.4375 26.75C23.4375 26.3448 23.5997 25.9686 23.8942 25.6909C23.9764 25.6133 24.0234 25.5028 24.0234 25.3869V24.9091C24.0234 24.6832 23.8485 24.5 23.6328 24.5H20.3906V21.728C20.6295 21.9372 20.907 22.0893 21.2064 22.1738C21.4149 22.2325 21.6291 22.1033 21.6852 21.8852C21.7413 21.667 21.6179 21.4425 21.4096 21.3838C21.1565 21.3124 20.9271 21.1636 20.7465 20.9534C20.6724 20.8673 20.5669 20.8181 20.4562 20.8181H20C19.7843 20.8181 19.6094 21.0013 19.6094 21.2272V24.4999H16.3672C16.1515 24.4999 15.9766 24.6831 15.9766 24.909V25.3868C15.9766 25.5028 16.0235 25.6132 16.1058 25.6908C16.4003 25.9686 16.5625 26.3448 16.5625 26.75C16.5625 27.5395 15.9492 28.1818 15.1953 28.1818C14.4414 28.1818 13.8281 27.5395 13.8281 26.75C13.8281 26.3448 13.9903 25.9686 14.2848 25.6909C14.3671 25.6133 14.4141 25.5028 14.4141 25.3869V24.9091C14.4141 24.6832 14.2391 24.5 14.0234 24.5H10.7812V21.7275C11.1653 22.0625 11.6493 22.25 12.1484 22.25C13.3331 22.25 14.2969 21.2406 14.2969 20C14.2969 18.7593 13.3331 17.75 12.1484 17.75Z" fill="white"/>
</svg>
