<svg width="40" height="40" viewBox="0 0 40 40" fill="none" xmlns="http://www.w3.org/2000/svg">
<rect width="40" height="40" rx="4" fill="#151515"/>
<path d="M27.3395 20.6314V18.0708C27.3395 17.4055 26.7953 16.8643 26.1264 16.8643H23.2555C22.5866 16.8643 22.0423 17.4055 22.0423 18.0708V20.6314C22.0423 20.7219 22.0635 20.8112 22.1042 20.8921L22.3394 21.3599L22.1042 21.8277C22.0635 21.9087 22.0423 21.9979 22.0423 22.0884V24.649C22.0423 25.3143 22.5866 25.8556 23.2555 25.8556H26.1264C26.7953 25.8556 27.3395 25.3143 27.3395 24.649V22.0884C27.3395 21.9979 27.3183 21.9087 27.2776 21.8277L27.0424 21.3599L27.2776 20.8921C27.3183 20.8112 27.3395 20.7219 27.3395 20.6314ZM26.1676 20.4938L25.8632 21.0992C25.7807 21.2633 25.7807 21.4564 25.8632 21.6205L26.1676 22.226V24.649C26.1676 24.6716 26.1491 24.69 26.1264 24.69H23.2555C23.2327 24.69 23.2142 24.6716 23.2142 24.649V22.226L23.5186 21.6205C23.6011 21.4564 23.6011 21.2633 23.5186 21.0992L23.2142 20.4938V18.0708C23.2142 18.0482 23.2327 18.0298 23.2555 18.0298H26.1264C26.1491 18.0298 26.1676 18.0482 26.1676 18.0708V20.4938Z" fill="white"/>
<path d="M25.0628 20.7771H24.319C23.9954 20.7771 23.733 21.038 23.733 21.3599C23.733 21.6817 23.9954 21.9426 24.319 21.9426H25.0628C25.3864 21.9426 25.6488 21.6817 25.6488 21.3599C25.6488 21.038 25.3864 20.7771 25.0628 20.7771Z" fill="white"/>
<path d="M17.9577 20.6314V18.0708C17.9577 17.4055 17.4134 16.8643 16.7445 16.8643H13.8736C13.2047 16.8643 12.6605 17.4055 12.6605 18.0708V20.6314C12.6605 20.7219 12.6817 20.8112 12.7224 20.8921L12.9576 21.3599L12.7224 21.8277C12.6817 21.9087 12.6605 21.9979 12.6605 22.0884V24.649C12.6605 25.3143 13.2047 25.8556 13.8736 25.8556H16.7445C17.4134 25.8556 17.9577 25.3143 17.9577 24.649V22.0884C17.9577 21.9979 17.9365 21.9087 17.8958 21.8277L17.6606 21.3599L17.8958 20.8921C17.9365 20.8112 17.9577 20.7219 17.9577 20.6314ZM16.7858 20.4938L16.4814 21.0992C16.3989 21.2633 16.3989 21.4564 16.4814 21.6205L16.7858 22.2259V24.6489C16.7858 24.6716 16.7673 24.69 16.7445 24.69H13.8736C13.8509 24.69 13.8324 24.6716 13.8324 24.6489V22.2259L14.1368 21.6205C14.2193 21.4564 14.2193 21.2633 14.1368 21.0992L13.8324 20.4938V18.0708C13.8324 18.0482 13.8509 18.0298 13.8736 18.0298H16.7445C16.7673 18.0298 16.7858 18.0482 16.7858 18.0708V20.4938Z" fill="white"/>
<path d="M15.681 20.7771H14.9372C14.6136 20.7771 14.3512 21.038 14.3512 21.3599C14.3512 21.6817 14.6136 21.9426 14.9372 21.9426H15.681C16.0046 21.9426 16.267 21.6817 16.267 21.3599C16.267 21.038 16.0046 20.7771 15.681 20.7771Z" fill="white"/>
<path d="M19.898 16.2142C19.5744 16.2142 19.312 16.4751 19.312 16.7969V25.9222C19.312 26.2441 19.5744 26.505 19.898 26.505C20.2216 26.505 20.4839 26.2441 20.4839 25.9222V16.7969C20.4839 16.4751 20.2216 16.2142 19.898 16.2142Z" fill="white"/>
<path d="M28.2422 11H11.7578C10.7886 11 10 11.7843 10 12.7483V27.2517C10 28.2157 10.7886 29 11.7578 29H28.2422C29.2114 29 30 28.2157 30 27.2517V12.7483C30 11.7843 29.2114 11 28.2422 11ZM28.8281 27.2517C28.8281 27.573 28.5653 27.8344 28.2422 27.8344H11.7578C11.4347 27.8344 11.1719 27.573 11.1719 27.2517V15.1624H28.8281V27.2517ZM28.8281 13.9969H11.1719V12.7483C11.1719 12.427 11.4347 12.1656 11.7578 12.1656H28.2422C28.5653 12.1656 28.8281 12.427 28.8281 12.7483V13.9969Z" fill="white"/>
</svg>
