<svg width="40" height="40" viewBox="0 0 40 40" fill="none" xmlns="http://www.w3.org/2000/svg">
<rect width="40" height="40" rx="4" fill="#151515"/>
<path d="M26.4719 19.4627L23.5466 16.6323V11.7578C23.5466 10.7886 22.7316 10 21.7299 10H13.8168C12.815 10 12 10.7886 12 11.7578V28.2422C12 29.2114 12.815 30 13.8168 30H26.1709C26.4594 30 26.7078 29.8031 26.7646 29.5295L27.8931 24.094C28.2457 22.3961 27.7144 20.6648 26.4719 19.4627ZM13.8168 11.1719H21.7299C22.0638 11.1719 22.3354 11.4347 22.3354 11.7578V19.3156C21.5927 18.6068 20.3994 18.6107 19.6616 19.3244C18.9224 20.0385 18.9188 21.1978 19.6567 21.9166L21.9764 24.2499C21.4735 24.613 20.822 25.2468 20.3542 26.2891H13.2112V11.7578C13.2112 11.4347 13.4828 11.1719 13.8168 11.1719ZM13.2112 28.2422V27.4609H19.9627C19.8667 27.8718 19.7988 28.3261 19.7689 28.8281H13.8168C13.4828 28.8281 13.2112 28.5653 13.2112 28.2422ZM26.7057 23.8632L25.6748 28.8281C24.701 28.8281 21.9827 28.8281 20.9829 28.8281C21.0702 27.5836 21.4405 26.5405 22.0667 25.7877C22.5859 25.1635 23.1146 24.9397 23.1567 24.9226C23.5529 24.7854 23.6946 24.2877 23.3775 23.9688C20.5141 21.0885 20.5229 21.0973 20.5177 21.0923C20.2518 20.835 20.2476 20.4144 20.5177 20.1534C20.7847 19.8951 21.2187 19.8944 21.4866 20.1515C22.7668 21.4185 22.1443 20.8105 24.3847 22.9782C24.6212 23.207 25.0047 23.2071 25.2412 22.9782C25.4777 22.7494 25.4777 22.3784 25.2412 22.1496L23.5466 20.5101V18.2896L25.6155 20.2913C26.5706 21.2154 26.9782 22.5507 26.7057 23.8632Z" fill="white"/>
</svg>
