<svg width="40" height="40" viewBox="0 0 40 40" fill="none" xmlns="http://www.w3.org/2000/svg">
<rect width="40" height="40" rx="4" fill="#151515"/>
<path d="M28.125 20.8333H19.375C18.3417 20.8333 17.5 19.9925 17.5 18.9583V11.875C17.5 10.8408 18.3417 10 19.375 10H28.125C29.1583 10 30 10.8408 30 11.875V18.9583C30 19.9925 29.1583 20.8333 28.125 20.8333ZM19.375 11.25C19.0308 11.25 18.75 11.53 18.75 11.875V18.9583C18.75 19.3033 19.0308 19.5833 19.375 19.5833H28.125C28.4692 19.5833 28.75 19.3033 28.75 18.9583V11.875C28.75 11.53 28.4692 11.25 28.125 11.25H19.375Z" fill="white"/>
<path d="M29.375 14.1667H18.125C17.78 14.1667 17.5 13.8867 17.5 13.5417C17.5 13.1967 17.78 12.9167 18.125 12.9167H29.375C29.72 12.9167 30 13.1967 30 13.5417C30 13.8867 29.72 14.1667 29.375 14.1667Z" fill="white"/>
<path d="M20.625 30H11.875C10.8417 30 10 29.1592 10 28.125V21.0417C10 20.0075 10.8417 19.1667 11.875 19.1667H15.2083C15.5533 19.1667 15.8333 19.4467 15.8333 19.7917C15.8333 20.1367 15.5533 20.4167 15.2083 20.4167H11.875C11.5308 20.4167 11.25 20.6967 11.25 21.0417V28.125C11.25 28.47 11.5308 28.75 11.875 28.75H20.625C20.9692 28.75 21.25 28.47 21.25 28.125V23.125C21.25 22.78 21.53 22.5 21.875 22.5C22.22 22.5 22.5 22.78 22.5 23.125V28.125C22.5 29.1592 21.6583 30 20.625 30Z" fill="white"/>
<path d="M16.875 23.3333H10.625C10.28 23.3333 10 23.0533 10 22.7083C10 22.3633 10.28 22.0833 10.625 22.0833H16.875C17.22 22.0833 17.5 22.3633 17.5 22.7083C17.5 23.0533 17.22 23.3333 16.875 23.3333Z" fill="white"/>
<path d="M13.3333 16.6667C13.1733 16.6667 13.0133 16.6058 12.8917 16.4833L11.6417 15.2333C11.3975 14.9892 11.3975 14.5933 11.6417 14.3492C11.8858 14.105 12.2817 14.105 12.5258 14.3492L13.3333 15.1575L14.1417 14.3492C14.3858 14.105 14.7817 14.105 15.0258 14.3492C15.27 14.5933 15.27 14.9892 15.0258 15.2333L13.7758 16.4833C13.6533 16.6058 13.4933 16.6667 13.3333 16.6667Z" fill="white"/>
<path d="M13.3333 16.25C12.9883 16.25 12.7083 15.97 12.7083 15.625V14.375C12.7083 13.1108 13.7358 12.0833 15 12.0833H15.2083C15.5533 12.0833 15.8333 12.3633 15.8333 12.7083C15.8333 13.0533 15.5533 13.3333 15.2083 13.3333H15C14.4258 13.3333 13.9583 13.8008 13.9583 14.375V15.625C13.9583 15.97 13.6783 16.25 13.3333 16.25Z" fill="white"/>
<path d="M27.9167 25.8333C27.7567 25.8333 27.5967 25.7725 27.475 25.65L26.6667 24.8425L25.8583 25.6508C25.6142 25.895 25.2183 25.895 24.9742 25.6508C24.73 25.4067 24.73 25.0108 24.9742 24.7667L26.2242 23.5167C26.4683 23.2725 26.8642 23.2725 27.1083 23.5167L28.3583 24.7667C28.6025 25.0108 28.6025 25.4067 28.3583 25.6508C28.2367 25.7725 28.0767 25.8333 27.9167 25.8333Z" fill="white"/>
<path d="M25 27.9167H24.7917C24.4467 27.9167 24.1667 27.6367 24.1667 27.2917C24.1667 26.9467 24.4467 26.6667 24.7917 26.6667H25C25.5742 26.6667 26.0417 26.1992 26.0417 25.625V24.375C26.0417 24.03 26.3217 23.75 26.6667 23.75C27.0117 23.75 27.2917 24.03 27.2917 24.375V25.625C27.2917 26.8892 26.2642 27.9167 25 27.9167Z" fill="white"/>
</svg>
