<svg width="40" height="40" viewBox="0 0 40 40" fill="none" xmlns="http://www.w3.org/2000/svg">
<rect width="40" height="40" rx="4" fill="#151515"/>
<path d="M29.928 25.7877L28.7664 22.3533C29.3263 21.1905 29.6222 19.8972 29.6242 18.596C29.6276 16.3335 28.766 14.1942 27.198 12.5723C25.6296 10.9501 23.5397 10.0369 21.3131 10.0011C19.0043 9.96404 16.8342 10.8562 15.2026 12.5137C13.6294 14.1119 12.7568 16.2189 12.7292 18.4704C11.1787 19.6564 10.2635 21.5055 10.2665 23.4805C10.2679 24.4048 10.4727 25.3235 10.8607 26.1543L10.0606 28.5198C9.92305 28.9265 10.0235 29.368 10.3228 29.672C10.5334 29.8861 10.8111 30 11.0967 30C11.2169 30 11.3384 29.9798 11.457 29.9384L13.7855 29.1256C14.6033 29.5198 15.5076 29.7278 16.4174 29.7293C16.4206 29.7293 16.4238 29.7293 16.427 29.7293C18.4001 29.7292 20.2341 28.7755 21.3972 27.1616C22.6077 27.1292 23.8053 26.8316 24.888 26.2935L28.2686 27.4736C28.4095 27.5228 28.5539 27.5468 28.6967 27.5468C29.0361 27.5468 29.3661 27.4113 29.6164 27.157C29.9721 26.7956 30.0914 26.271 29.928 25.7877ZM16.427 28.5199C16.4244 28.5199 16.4217 28.5199 16.4192 28.5199C15.614 28.5186 14.8143 28.3169 14.1068 27.9367C13.9614 27.8586 13.7906 27.845 13.635 27.8993L11.2474 28.7328L12.0679 26.3072C12.1213 26.1491 12.108 25.9756 12.0311 25.8279C11.6568 25.1091 11.4582 24.2968 11.457 23.4787C11.455 22.1628 11.9589 20.9156 12.84 19.9816C13.1278 21.7641 13.964 23.4066 15.2602 24.7C16.5468 25.9839 18.1641 26.8013 19.9091 27.0685C18.9877 27.9911 17.7456 28.5199 16.427 28.5199ZM28.7746 26.3018C28.7407 26.3362 28.7005 26.3455 28.6554 26.3298L25.0363 25.0664C24.9735 25.0444 24.9081 25.0335 24.8429 25.0335C24.7469 25.0335 24.6512 25.0572 24.5646 25.1037C23.5312 25.6591 22.3636 25.9536 21.1877 25.9555C21.1838 25.9555 21.1803 25.9555 21.1765 25.9555C17.2365 25.9555 13.9821 22.704 13.9197 18.7022C13.8882 16.6869 14.6428 14.7928 16.0444 13.3688C17.446 11.9449 19.3108 11.1786 21.2943 11.2103C25.2371 11.2739 28.4398 14.5862 28.4337 18.5941C28.4319 19.7887 28.142 20.975 27.5954 22.0247C27.5185 22.1724 27.5052 22.3459 27.5586 22.504L28.8022 26.1807C28.8177 26.2267 28.8084 26.2674 28.7746 26.3018Z" fill="white"/>
<path d="M24.7224 15.3773H17.6302C17.3014 15.3773 17.0349 15.648 17.0349 15.982C17.0349 16.316 17.3015 16.5867 17.6302 16.5867H24.7224C25.0511 16.5867 25.3176 16.3159 25.3176 15.982C25.3176 15.648 25.0511 15.3773 24.7224 15.3773Z" fill="white"/>
<path d="M24.7224 17.8643H17.6302C17.3014 17.8643 17.0349 18.1351 17.0349 18.469C17.0349 18.803 17.3015 19.0737 17.6302 19.0737H24.7224C25.0511 19.0737 25.3176 18.803 25.3176 18.469C25.3176 18.1351 25.0511 17.8643 24.7224 17.8643Z" fill="white"/>
<path d="M21.9924 20.3513H17.6301C17.3014 20.3513 17.0349 20.6221 17.0349 20.956C17.0349 21.29 17.3014 21.5607 17.6301 21.5607H21.9923C22.3211 21.5607 22.5876 21.29 22.5876 20.956C22.5876 20.6221 22.3211 20.3513 21.9924 20.3513Z" fill="white"/>
</svg>
