<svg width="40" height="40" viewBox="0 0 40 40" fill="none" xmlns="http://www.w3.org/2000/svg">
<rect width="40" height="40" rx="4" fill="#151515"/>
<path d="M27.2504 12H12.7496C11.2335 12 10 13.2064 10 14.6898V23.3708C10 24.8509 11.2281 26.0554 12.7399 26.0606V30L18.5271 26.0606H27.2504C28.7665 26.0606 30 24.854 30 23.3708V14.6898C30 13.2064 28.7665 12 27.2504 12ZM28.8281 23.3708C28.8281 24.2218 28.1204 24.9143 27.2504 24.9143H18.1594L13.9117 27.8058V24.9143H12.7496C11.8796 24.9143 11.1719 24.2218 11.1719 23.3708V14.6898C11.1719 13.8386 11.8796 13.1464 12.7496 13.1464H27.2504C28.1204 13.1464 28.8281 13.8386 28.8281 14.6898V23.3708Z" fill="white"/>
<path d="M15.3529 16.0506H24.6471V17.197H15.3529V16.0506Z" fill="white"/>
<path d="M15.3529 18.4962H24.6471V19.6426H15.3529V18.4962Z" fill="white"/>
<path d="M15.3529 20.9418H24.6471V22.0882H15.3529V20.9418Z" fill="white"/>
</svg>
