<svg width="40" height="40" viewBox="0 0 40 40" fill="none" xmlns="http://www.w3.org/2000/svg">
<rect width="40" height="40" rx="4" fill="#151515"/>
<path d="M10 11V29H30V11H10ZM28.8281 27.8053H11.1719V12.1947H28.8281V27.8053Z" fill="white"/>
<path d="M27.6562 13.3894H12.3438V26.6106H27.6562V13.3894ZM26.4844 14.5841V23.0177C23.4775 22.9256 21.9133 22.124 20.2632 21.2783C18.5624 20.4066 16.8066 19.5069 13.5156 19.4112V14.5841H26.4844ZM13.5156 25.4159V20.6062C16.5225 20.6983 18.0867 21.4999 19.7368 22.3456C21.4376 23.2173 23.1934 24.117 26.4844 24.2127V25.4159H13.5156Z" fill="white"/>
<path d="M22.9492 20.5973C24.2523 20.5973 25.3125 19.5165 25.3125 18.1881C25.3125 16.8596 24.2523 15.7788 22.9492 15.7788C21.6461 15.7788 20.5859 16.8596 20.5859 18.1881C20.5859 19.5165 21.6461 20.5973 22.9492 20.5973ZM22.9492 16.9735C23.6061 16.9735 24.1406 17.5183 24.1406 18.1881C24.1406 18.8578 23.6061 19.4027 22.9492 19.4027C22.2923 19.4027 21.7578 18.8578 21.7578 18.1881C21.7578 17.5183 22.2923 16.9735 22.9492 16.9735Z" fill="white"/>
</svg>
