<svg width="40" height="40" viewBox="0 0 40 40" fill="none" xmlns="http://www.w3.org/2000/svg">
<rect width="40" height="40" rx="4" fill="#151515"/>
<path d="M27.0556 10H16.3519C13.4008 10 11 12.311 11 15.1516C11 17.9921 13.4008 20.303 16.3519 20.303H18.5556V29.0909C18.5556 29.593 18.9784 30 19.5 30C20.0216 30 20.4444 29.593 20.4444 29.0909V11.8182H22.3333V29.0909C22.3333 29.593 22.7562 30 23.2778 30C23.7994 30 24.2222 29.593 24.2222 29.0909V11.8182H27.0556C27.5771 11.8182 28 11.4112 28 10.9091C28 10.407 27.5771 10 27.0556 10ZM16.3519 18.4848C14.4424 18.4848 12.8889 16.9896 12.8889 15.1516C12.8889 13.3136 14.4424 11.8182 16.3519 11.8182H18.5556V18.4848H16.3519Z" fill="white"/>
</svg>
