<svg width="40" height="40" viewBox="0 0 40 40" fill="none" xmlns="http://www.w3.org/2000/svg">
<rect width="40" height="40" rx="4" fill="#151515"/>
<path d="M23.2402 20.0108L18.5527 17.1262C18.3721 17.015 18.1444 17.0091 17.9581 17.1108C17.7718 17.2124 17.6562 17.4057 17.6562 17.6154V23.3846C17.6562 23.5943 17.7718 23.7875 17.9581 23.8892C18.0466 23.9375 18.1445 23.9615 18.2421 23.9615C18.3501 23.9615 18.4579 23.9322 18.5527 23.8738L23.2402 20.9892C23.4115 20.8838 23.5156 20.6989 23.5156 20.5C23.5156 20.3011 23.4116 20.1162 23.2402 20.0108ZM18.8281 22.3437V18.6563L21.8241 20.5L18.8281 22.3437Z" fill="white"/>
<path d="M27.0703 13H12.9297C11.3143 13 10 14.294 10 15.8846V25.1154C10 26.706 11.3143 28 12.9297 28H27.0703C28.6857 28 30 26.706 30 25.1154V15.8846C30 14.294 28.6857 13 27.0703 13ZM28.8281 25.1154C28.8281 26.0697 28.0396 26.8462 27.0703 26.8462H12.9297C11.9604 26.8462 11.1719 26.0697 11.1719 25.1154V15.8846C11.1719 14.9303 11.9604 14.1538 12.9297 14.1538H27.0703C28.0396 14.1538 28.8281 14.9303 28.8281 15.8846V25.1154Z" fill="white"/>
</svg>
