<svg xmlns="http://www.w3.org/2000/svg" viewBox="0 0 1091.7 775.7"  xmlns:v="https://vecta.io/nano"><style><![CDATA[.B{fill:#f0cfb0}.C{fill:#404347}.D{fill:#dba585}.E{fill:#cb4949}.F{fill:#263238}.G{opacity:.15}.H{fill:#75c64e}.I{fill:#fe7c4d}.J{fill:#5a554e}.K{fill:#bbe8e3}]]></style><path fill="#395962" d="M908 174H108v-50c0-5.5 4.5-10 10-10h780c5.5 0 10 4.5 10 10v50z"/><circle fill="#c83f68" cx="154.9" cy="144" r="9.6"/><circle fill="#f0c62f" cx="186.2" cy="144" r="9.6"/><circle cx="217.4" cy="144" r="9.6" class="H"/><path fill="#fff" d="M108 174h800v467.3H108z"/><path d="M390.12 569.957L18.769 633.205l-5.339-31.348 371.351-63.248z" class="I"/><path d="M119.7 735.1l-.9 6.7c-.1.9-8.8-.5-8.8-.5l-.7-6.9c0 0 9.3-.1 10.4.7z" class="J"/><path d="M118.9 741.1s2.8 3.5 5.4 5c2.7 1.5 6.9 2.1 8.5 3.7 1.1 1.1 4.2 6.1-7 6-11.1-.1-16.5.7-17.7-1.2s1.7-13.9 1.7-13.9 2.7 1 9.1.4z" class="C"/><path d="M182.3 735.1l-.9 6.7c-.1.9-8.8-.5-8.8-.5l-.7-6.9c-.1 0 9.3-.1 10.4.7z" class="J"/><path d="M181.5 741.1s2.8 3.5 5.4 5c2.7 1.5 12.5 2.8 14.1 4.4 1.1 1.1 3 5.7-12.6 5.3-11.1-.3-16.5.7-17.7-1.2s1.7-13.9 1.7-13.9 2.6 1.1 9.1.4z" class="C"/><path fill="#373a3d" d="M122.8 584.8s-4.6 14.4-4 26.9c.6 12.4-2.4 26.1-3.6 39.1-1.4 14.5-7 48.8-7.2 56.6s.9 32.5.9 32.5l11.3.3s9.5-60 11.9-66.1 14.6-49.8 15-54.7c.3-4.9-24.3-34.6-24.3-34.6z"/><path d="M170.1 587.4l7 41.7c.8 7.6 1.4 36.9 1.8 41.6.4 4.8 2.7 62.3 4.9 69.4h-12.6s-12.9-41.8-12.9-61.6-8.5-43-14-56.1-18.1-13.4-21.5-37.6c0 0 42.7-5.1 47.3 2.6z" class="C"/><g class="D"><path d="M147.6 473.6s11.5-2.4 15.2 6.7.6 25.6-5.2 26.8-13.9-1.2-15.9-6.8-3.4-13.5-2.4-18.5c.9-5 5.2-7.2 8.3-8.2zm63.2 122.6s3.5 3.7 4.6 4.1c1.2.4 3.5-1.5 11.8-1.8.7 0 2 .7 1.6 1.6-.3 1-3.3 4.8-4.9 5.2-1.6.3-9.7 1.6-13.2 0s-5.7-6.2-5.7-6.2l5.8-2.9z"/><path d="M156.4 507.3s-.9 2.9-.4 4.4c.5 1.6-14.3-.7-14.3-.7s0-8.1-1.2-15.1 15.9 11.4 15.9 11.4z"/></g><path fill="#3d4062" d="M140.5 495.9s.8 1.9 5 1.9c4.3 0 10.3-4.8 12.1-5.1s2-1.4 2-1.4l.8 1.8 1.8.4s-.9-5.2 2-6.9c2.9-1.6 3.7-20.1-14.3-13.9 0 0-12.1 1.2-12.6 7.2-.5 5.9 1.3 12.8 3.2 16z"/><g class="E"><path d="M156 511.7s7.8 2.1 15.6 7.8c0 0 9.5 4.4 10.5 14.7.5 5.5 5.3 26.2 6.4 28.7 1.1 2.4 23.4 33.3 23.9 34.1s-5.8 5.1-6.5 4.8c-.7-.4-25.7-27.3-26.8-29.9 0 0-7.7-15.6-7.9-18.8 0 0-.2 9-.6 11.6-.4 2.5 5.9 44.6 5.7 46s-25.6 5.1-37.2 3.9c-11.5-1.3-22.5-6.4-22.5-6.4s6.3-29.7 5.6-34-2.1-28.7-2.1-28.7l-7.9 11.5 12.6 19-3 12.3s-21.9-28-22.6-31.1.5-6.1 1.6-8.6c1.2-2.5 7.9-14.4 9.7-17.1s6.9-11.2 14.7-13.8 16.3-6.6 16.3-6.6l14.5.6z"/><path d="M157.3 512.3s0-2.8-1.3-3.1-14-1.5-15.6-.9v3.3c0 0 3 1.8 16.9.7z"/></g><path d="M159.7 489.2c-.1-1-2.1-4.2-3.6-1.4-1.4 2.9.3 7.3 1.7 7.1 1.4-.1 2.1-3.2 1.9-5.7z" class="D"/><path fill="#a03b3b" d="M120.9 585.6s2.2-10.6 1.1-14.1l-1.9-2.9c0 .1 1.1 6.1.8 17z"/><path d="M844.1 272.9H171.8v-47c0-1.7 1.3-3 3-3h666.3c1.7 0 3 1.3 3 3v47z" class="I"/><path fill="#fed0c0" d="M841.1 373.8H174.8c-1.7 0-3-1.3-3-3v-97.9H844v97.9c.1 1.6-1.3 3-2.9 3z"/><path fill="#fff" d="M214.1 245.7h-8.2v-8.2a1.58 1.58 0 0 0-1.6-1.6h-1.1a1.58 1.58 0 0 0-1.6 1.6v8.2h-8.2a1.58 1.58 0 0 0-1.6 1.6v1.1a1.58 1.58 0 0 0 1.6 1.6h8.2v8.2a1.58 1.58 0 0 0 1.6 1.6h1.1a1.58 1.58 0 0 0 1.6-1.6V250h8.2a1.58 1.58 0 0 0 1.6-1.6v-1.1c0-.8-.7-1.6-1.6-1.6z"/><path d="M841.1 434.8H174.8c-1.7 0-3-1.3-3-3v-44c0-1.7 1.3-3 3-3h666.3c1.7 0 3 1.3 3 3v44a3.08 3.08 0 0 1-3 3z" class="I"/><path fill="#fff" d="M214.1 407.6h-8.2v-8.2a1.58 1.58 0 0 0-1.6-1.6h-1.1a1.58 1.58 0 0 0-1.6 1.6v8.2h-8.2a1.58 1.58 0 0 0-1.6 1.6v1.1a1.58 1.58 0 0 0 1.6 1.6h8.2v8.2a1.58 1.58 0 0 0 1.6 1.6h1.1a1.58 1.58 0 0 0 1.6-1.6v-8.2h8.2a1.58 1.58 0 0 0 1.6-1.6v-1.1a1.58 1.58 0 0 0-1.6-1.6z"/><path d="M841.1 496.6H174.8c-1.7 0-3-1.3-3-3v-44c0-1.7 1.3-3 3-3h666.3c1.7 0 3 1.3 3 3v44a3.01 3.01 0 0 1-3 3z" class="I"/><path d="M214.1 469.4h-8.2v-8.2a1.58 1.58 0 0 0-1.6-1.6h-1.1a1.58 1.58 0 0 0-1.6 1.6v8.2h-8.2a1.58 1.58 0 0 0-1.6 1.6v1.1a1.58 1.58 0 0 0 1.6 1.6h8.2v8.2a1.58 1.58 0 0 0 1.6 1.6h1.1a1.58 1.58 0 0 0 1.6-1.6v-8.2h8.2a1.58 1.58 0 0 0 1.6-1.6V471a1.58 1.58 0 0 0-1.6-1.6zM45.5 611.5l-5.9 1-1-5.9c-.1-.7-.7-1.1-1.4-1l-.8.1c-.7.1-1.1.7-1 1.4l1 5.9-5.9 1c-.7.1-1.1.7-1 1.4l.1.8c.1.7.7 1.1 1.4 1l5.9-1 1 5.9c.1.7.7 1.1 1.4 1l.8-.1c.7-.1 1.1-.7 1-1.4l-1-5.9 5.9-1c.7-.1 1.1-.7 1-1.4l-.1-.8c-.1-.7-.8-1.1-1.4-1z" fill="#fff"/><path d="M1091.7 765.7c0 2.8-.8 5.3-2 7.1s-2.9 2.9-4.8 2.9H6.8c-3.8 0-6.8-4.5-6.8-10 0-2.8.8-5.3 2-7.1s2.9-2.9 4.8-2.9h1078.1c3.8 0 6.8 4.5 6.8 10z" class="F"/><path d="M946.4 755.8H943l-97.4-219.2 3.4.1zm66.9 0h-3.4l-97.4-219.4 3.3-.1z"/><path d="M933.7 734.8h68.6l-1.5-3.4h-68.6zm-15.3-34.3H987l-1.5-3.4h-68.6zm-15.2-34.3h68.6l-1.5-3.4h-68.6zM888 631.9h68.6l-1.5-3.4h-68.6zm-15.3-34.3h68.6l-1.5-3.4h-68.6zm-15.2-34.3h68.6l-1.5-3.4H856z"/><linearGradient id="A" gradientUnits="userSpaceOnUse" x1="943.58" y1="430.781" x2="943.58" y2="527.846"><stop offset="0" stop-color="#fff"/><stop offset="1"/></linearGradient><path fill="url(#A)" d="M932.3 425.3s5.6-4.4 6.6 0-6.5 59.2 16 65.3c0 0-16-.9-18.8-2.9-.1-.1-3.9-56.9-3.8-62.4z" class="G"/><linearGradient id="B" gradientUnits="userSpaceOnUse" x1="1007.309" y1="414.841" x2="981.309" y2="479.839"><stop offset="0" stop-color="#fff"/><stop offset="1"/></linearGradient><path fill="url(#B)" d="M991.1 443.7l2.1-13.9s6.9 21.5 4.5 29.4c0 0-4.8-14.4-6.6-15.5z" class="G"/><linearGradient id="C" gradientUnits="userSpaceOnUse" x1="1004.626" y1="452.806" x2="977.949" y2="519.5"><stop offset="0" stop-color="#fff"/><stop offset="1"/></linearGradient><path fill="url(#C)" d="M979.7 489l26.7-14.3-25.6 18.1z" class="G"/><path d="M876.9 390.8s.7-5.2.1-7.7c-.6-2.4-1.3-4.8-2.1-6.1s-.9 1.2-.8 3.8-.3 2.4-1.6.2l-4-6.7c-.5-1.2-2.3-4.5-2.6-3.9s.4 3.2.7 5c.2 1.7-1.3 3.4-1.6 5.2s0 5 2.2 7.8l4.5 5.9 5.2-3.5z" class="B"/><path d="M989.9 407.2s13.4 12.4 19.6 30.4c6.2 17.9 8.7 25.4 4.4 30.7-4.4 5.3-33 24.5-33 24.5l-5-9s21.8-20.2 21.8-24.6-13.1-27.4-13.1-27.4l5.3-24.6z" class="E"/><path d="M972.4 405.6l-17.6.7s.8-8.1.7-12.1c-.2-3.7.2-6.8.2-6.8s6.3-3.7 10.9-5.2c2.8-.9 5-1 4.5 1.2-1.1 5.9 1.3 22.2 1.3 22.2z" class="B"/><path d="M966.3 383s2.4 5.7 4.8 6.4c0 0 14.3-11.7 14.3-19.3 0-7.9-6.9-10-6.9-10s-6.2-14.5-12.5-16.2c-7.6-2.1-15.9.7-11.6 15.3 4.2 14.1 11.9 23.8 11.9 23.8z" class="F"/><linearGradient id="D" gradientUnits="userSpaceOnUse" x1="963.283" y1="379.506" x2="948.695" y2="417.295"><stop offset="0" stop-color="#fff"/><stop offset="1"/></linearGradient><path fill="url(#D)" d="M966.7 382.2c-.1.3-.2.5-.4.8-3.5 6.6-7.9 9.8-10.8 11.2-.2-3.7.2-6.8.2-6.8s6.4-3.7 11-5.2z" class="G"/><path d="M954.3 358.4s-11.6 16.7-7.8 26.6 16.3 2.3 18.1-1.4c0 0 4.7 0 5.9-4s-4.1-4.2-4.1-4.2-10.9-8.4-12.1-17zm-41.9 272.4c-1.4.5-19.7.2-27.3.1-1.6 0-2.3-1.9-1.2-3 1.9-1.8 5.2-3.9 11-4.4 2.5-.2 4-1.1 4.9-2.4 1.3-1.9 1.3-4.7 1-8.5-.1-.8-.1-1.6-.2-2.5-.6-7.8 11.1-.1 11.1-.1v2.7c.1 2.3.3 5.6 1 8.3.1.4.2.8.3 1.1 1.4 4.3 1.2 8-.6 8.7z" class="B"/><path d="M912.4 630.8c-1.5.6-22.8.2-29 0-.8 0-1.1-.8-.7-1.5 1.2-2.5 4.7-6.3 12-7 2.5-.2 4.8-1.2 5.7-2.6 2.6.2 4.6 1.3 4.6 3.6 0 1.4 4.3 1.8 7.7-2.5.1.4.2.8.3 1.1 1.4 4.5 1.2 8.2-.6 8.9z" class="C"/><path d="M981.1 665.9c-1.4.5-19.7.2-27.3.1-1.6 0-2.3-1.9-1.2-3 1.9-1.8 5.2-3.9 11-4.4 2.5-.2 4-1.1 4.9-2.4 1.3-1.9 1.3-4.7 1-8.5-.1-.8-.1-1.6-.2-2.5-.6-7.8 11.1-.1 11.1-.1v2.7c.1 2.3.3 5.6 1 8.3.1.4.2.8.3 1.1 1.5 4.3 1.2 8-.6 8.7z" class="B"/><path d="M981.1 665.9c-1.5.6-22.8.2-29 0-.8 0-1.1-.8-.7-1.5 1.2-2.5 4.7-6.3 12-7 2.5-.2 4.8-1.2 5.7-2.6 2.6.2 4.6 1.3 4.6 3.6 0 1.4 4.3 1.8 7.7-2.5.1.4.2.8.3 1.1 1.5 4.5 1.2 8.2-.6 8.9z" class="C"/><g class="F"><path d="M977.1 481.3s9.3 25.8 9 39.5-5.3 56.7-5.3 60.4l.9 69.1h-13.5s-11.1-66.3-10.4-71c.6-4.7-3.1-63.2-3.1-63.2l6.4-32.4 16-2.4z"/><path d="M970.9 486s0 20.2-19.9 36.1-36.4 29.9-37.1 32.1c-.6 2.2 0 57.6 0 57.6h-15.3s-7.9-63.2-7.6-69.4 45-54.7 45-54.7l34.9-1.7z"/></g><path d="M989.9 407.2c-5.8-6.6-40.5-6.9-51.8-5.7-11.2 1.2-37.8 12.9-37.8 12.9l-22-23.3-7.1 4.6s20.4 32.8 28.7 34.4c8.3 1.7 31.8-5.8 32.4-4.9s-.4 64.4 1 65.3c24.9 15 52 8.8 52 8.8l6.4-59.8c1.3-7.7 4.7-24.9-1.8-32.3z" class="E"/><path d="M973.5 402.1s-.9-3.9-1.8-4.3c-1-.3-15.1-1.5-16.2-.8s-2.2 3.9-2.2 3.9 17.2 1.6 20.2 1.2zM877.1 389l1.2 2.1-6.3 4.1-1.4-2.2z" fill="#76a8e8"/><path d="M798.1 177.3s-2.5 2.2-4.7 5.5c-2.2 3.4-8.2 3.5-8.4 8.1-.3 4.6 8.1 4.7 12.4 3.2 4.4-1.5 5-6 7.7-7.1 2.6-1.1 4-2 3.8-4.2s-1.7-5.7-1.7-5.7-1.6.5-2.6.6-4.3.2-6.5-.4z" class="C"/><path d="M828 53.3l-3 16.5c-.5 2.7-1 4.8-1.3 5.4-.4.8-3.5 4.2-7.4 8.2l-15.7 15.7-3.5-6.6L810.4 77c2.5-2.9 4.4-5.1 4.8-5.4 1.1-1 2.4-10.9 4.3-19 1.8-8.2 5.5-12.7 5.5-12.7l3 13.4z" class="E"/><path d="M816.3 83.4l-15.7 15.7-3.5-6.6L810.4 77c1.6.8 4.7 2.8 5.9 6.4z" class="D"/><path d="M859.5 174.5l3.6 4.1c1.4 1.5 6.5 4.3 6.6 8.8 0 4.9-3.8 4.5-7.3 4.3-3.4-.2-6.2-2.6-7.7-5.4-1.4-2.8-5.3-3.5-5.6-5.8s1.8-6.3 1.8-6.3l8.6.3z" class="C"/><path d="M851.5 170.1l-.4 4.2s7.2 3.1 8.5.2l-.3-3.8-7.8-.6zm-53.1 4.1l-.4 3s4.3 1.5 9.1-.1l.1-2.7-8.8-.2z" class="J"/><path d="M859.9 97.8c.2.9-45.9 0-45.9 0s12.8-9.3 13.6-11.8-3.2-17.4-3.8-22.2c-.4-3.9-1.5-21.2 1.1-23.9 2.7-2.8 12.3-5.7 12.3-5.7l14 .5s2.3.5 4 1.3 11.1 4.1 12.6 8.9-9.4 19.9-9.4 19.9 0 .7-.1 1.8h0c0 1.5-.1 3.8-.2 6.2-.1 3.2-.1 6.7-.1 9.3.1 6 1.7 14.8 1.9 15.7z" class="E"/><path d="M859.9 97.8s6.3 9.2 6.4 15.5-2.3 23.7-2.5 27.2-3.4 32.3-3.4 32.3-2.5 2.3-10-.6l-1.8-30.2c-.2-2.9-.2-16.4-1.9-18.3s-11.9-8.1-13.2-9.2c-1.3-1.2-24.5 4.4-26.9 5-6.3 1.6-3.4 12.6-2 17.5 2.3 8.2 4.4 37.8 4.4 37.8s-4.5 1.9-12 .3l-15.2-58.8c-.5-5.3-.7-14.1 35.6-20.7l42.5 2.2z" class="C"/><g class="D"><path d="M841.1 3.8s-12.2-2.7-9.4 12.6 5.7 16.5 13 13.4c7.3-3.2 6.7-13 7.1-17.8.3-4.9-6.9-8-10.7-8.2z"/><path d="M837.8 38.2s5.4 5.7 13.9.5c0 0-1.9-12.4-.9-18.4s-11.1 9.3-11.1 9.3c.2.1.3.7.3 1.5 0 .7 0 1.6-.1 2.5-.3 2-.9 4.1-2.1 4.6zm9.8-23.9c.2-1.4 2.8-1.8 3 .2s-1.2 5.6-2.2 5.2c-1-.3-1-3.5-.8-5.4z"/></g><path fill="#3d4062" d="M851.2 19.8s-.3-4.8-2.1-5-2 1.8-2 1.8l-1.8.3s.6-4.2-1.2-5c-1.8-.7-11.4 2.3-12.8 1.1s-.7-9.8 1.8-11c2.6-1.2 9.6-3.8 14.8-.3 0 0 4-.5 4.6 2.8s-.2 12.9-1.3 15.3z"/><path fill="#997761" d="M839.9 33.6c8.8-2.7 9.5-8 9.5-8.1-2.9 5-9.3 5.6-9.3 5.6-.1.7-.1 1.6-.2 2.5z"/><path d="M855.3 36.1s-6.4 12.8-16.8 12-1.8-13.7-1.3-13.8c.5-.2 10.7-2.7 18.1 1.8z" class="D"/><path d="M808.8 97.1s31.9 3.9 51.2.6l-36.9-4.6c0 .1-.3 1-14.3 4z" class="E"/><path d="M832.6 91.7l-2.4 1.2s.5 3.8 1.8 4.9l2.7-.7c0 0-.5-4.1-2.1-5.4z" class="D"/><path d="M869.5 84c-.5.5-6.7 3.1-13.8 5.8h0c-9.7 3.7-20.6 7.2-20.6 7.2l-2.5-5.3 19.1-10.6c3.6-2.1 6.5-3.7 6.9-4.1 1.2-1.2 1.6-3.1.6-6.4-.9-3.3-3-18.5-3.2-20.3s.6-6.5 5-6.7 6.7 1 6.7 1 1.1.5 1.9 11.2c.9 10.9 1 26.9-.1 28.2z" class="E"/><path d="M858.4 66.3v.3l-.2 6.2c-4.3-10.6-1.8-19.1-1.8-19.2-.5 2.9 1.9 12.5 2 12.7zM825 69.8h0c-.5 2.7-1 4.8-1.3 5.4-1.5-7.1-.1-16.3-.1-16.3.1 4.4 1.4 10.9 1.4 10.9z" fill="#943838"/><path d="M855.7 89.8h0c-9.7 3.7-20.9 7.4-20.9 7.4l-2.1-5.4 19.1-10.6c-.1 0 2.7 1.3 3.9 8.6z" class="D"/><path fill="#5d5954" d="M831.9 97.5l-45.3-.7 22.9 11.6z"/><path fill="#8c867e" d="M809.5 108.4l22.4-8.7v-2.2l-24.2 8.7z"/><g class="D"><path d="M830.7 93l-4.8-.9c-1.5-.4-5.3.1-6.2 1.1-1 1-4 7.7-4.6 8.1s.3 1.4 1.3.9c0 0 .9 3 3.2 1.9s3.8-3.5 5.1-4l8.2-2.6s-.4-5.2-2.2-4.5z"/><path d="M820.4 92.8s-1.8.9-2.3 1.3l-2.9 2.2c-.5.3.7 1.3 4.1-.2 3.5-1.6 1.1-3.3 1.1-3.3z"/></g><path fill="#6c6760" d="M809.5 108.4L796 71.6l-43.4.7 12.9 33.9z"/><path fill="#7b6f66" d="M782.1 87.9c1.3 2.6.9 5.5-.9 6.4s-4.4-.5-5.7-3.1-.9-5.5.9-6.4c1.9-1 4.4.5 5.7 3.1z"/><path d="M466.3 542c.5-.4-5.7-1.8-9.4-.5-2.2.7-6.1 2.6-5.5 3.3.8.9 4.4-.9 5.7-.8 1.8.2-4.9 3.3-6.5 3.5-1.7.2-6.5 0-6.7.9s1.8 2.2 4.5 3.8c2.8 1.6 17.5-1.6 17.5-1.6l.4-8.6zm155.2 213.6c1.3.5 17.4.2 24.1.1 1.4 0 2-1.7 1-2.7-1.7-1.6-4.6-3.5-9.7-3.9-2.2-.2-3.5-.9-4.3-2.1-1.1-1.6-2.8-4.8-2.5-8.1 0-.7-9.9-1.6-10-.2-.1 2 1.7 5.8 1.1 8.2-.1.3-.2.7-.3 1-1.3 3.9-1 7.1.6 7.7z" class="B"/><path d="M621.5 755.6c1.4.5 20.2.2 25.6 0 .7 0 1-.7.7-1.4-1.1-2.2-4.1-5.6-10.6-6.2-2.2-.2-4.3-1.1-5.1-2.3-2.3.1-4.1 1.1-4 3.2 0 1.2-3.8 1.6-6.8-2.2-.1.3-.2.7-.3 1-1.4 4.1-1.1 7.3.5 7.9z" class="F"/><path d="M543.9 750.5c-2.2 1.8-.9 5.4 2 5.4h11.8c2.1 0 5-1.7 4.5-7.1 0-.3-.1-.7-.1-1-.2-2.6-.2-5.7-.1-8.3.1-3-9.7-4.2-9.9 0-.1 2.8-.6 5.4-1.6 6.9-.3.5-.7.8-1.2 1-2.4 1-4.2 2-5.4 3.1z" class="B"/><path d="M540.9 754.2c-.3.8.2 1.6 1.1 1.6h15.7c2.1 0 5-1.7 4.5-7.1 0-.3-.1-.7-.1-1-1.6 1-2.5 1.6-3.9.3-1-1-3.3-3.2-6.7-2.7-1 .1-1.2 1.2-1.6 1.6-.2.2-.4.3-.7.4-5.5 2.4-7.6 5.2-8.3 6.9zm-6.2-191.4s-6.7 101 16.1 178.1h12.4s-2-122.2 1-119.6 55 119.6 55 119.6h12.1s-34.5-153.3-45.6-178.1-51 0-51 0z" class="F"/><path fill="#ac2e00" d="M588.5 573c-1.4 1.5-12.6 2.3-26.7 4-4.7.6-9.5.5-13.7.1-8.3-.7-14.4-2.5-14.4-2.5l-2.4-51.6c-.3-.7-10.9 21-19 27-.1 0-.1.1-.1.1-.1 0-.1.1-.1.1-.6.4-1.2.8-1.8 1-8.4 3.2-45.3 0-45.3 0v-9.9l38.7-5.7c1.3-.7 18.7-38.2 23.7-46.6s28.2-9.8 28.2-9.8h14.1c19.9 1.7 24.4 8.2 26 15.8.5 2.3.6 4.6.9 7 .8 10.3-6.6 69.5-8.1 71z"/><linearGradient id="E" gradientUnits="userSpaceOnUse" x1="553.377" y1="491.01" x2="571.967" y2="578.738"><stop offset="0" stop-color="#fff"/><stop offset="1"/></linearGradient><path fill="url(#E)" d="M533.8 570.3s34.2-14.2 40.3-19.6 19.1-43.7 19.1-43.7l-34.9 38.4-25.3 13.2.8 11.7z" class="G"/><path d="M516.3 559.3s-7.5 1.5-9.6 2.5-4.9 1.6-4.9 2.6 5.1.3 6.9.5-2.4 5.5-3.9 6.5c-1.4.9-5.8 2.9-5.5 3.9.3.9 2.6 1.2 5.8 1.3s14.8-9.5 14.8-9.5l-3.6-7.8z" class="B"/><path fill="#282d52" d="M539.9 442.8s-5.3-3.4-5.1-10.1 12.9-10.3 20.4-5.4c13.2 8.7 10.9 5.6 16.4 10.5 10.5 9.4-1.2 23-7.3 24.3-6.2 1.2-24.4-19.3-24.4-19.3z"/><path d="M561.7 463.5l.2.8 3.5 15.6c.4 1.7-.7 1.4-2.1 2.4-1.6 1-3.8 2.1-6.7 2.5-2.5.4-4.5-.1-6-.6-1.6-.6-2.3-.1-2.4-1.7v-7.1l-.1-2.8c0-1.1.5-2.1 1.5-2.6l12.1-6.5z" class="B"/><linearGradient id="F" gradientUnits="userSpaceOnUse" x1="542.972" y1="459.727" x2="577.814" y2="493.52"><stop offset="0" stop-color="#fff"/><stop offset="1" stop-color="#272425"/></linearGradient><path opacity=".16" fill="url(#F)" d="M561.7 463.5l.2.8c-2.6 7.6-10.6 14.1-13.6 14.9l-.4-8.4 13.8-7.3z"/><path d="M568.1 455.6c-.9 3.8-3.6 5-3.6 5s-10 18.4-18.9 12.5c-7.3-4.8-6.5-21.9-6-28 .1-1.4.2-2.2.2-2.2 3.7 3.9 22.8 2.2 21.5 6.8v.1c-1.3 4.5 0 5.6.7 6.2.7.5 1.2-2.6 2.2-3.5 2.3-2.2 4.7-.2 3.9 3.1z" class="B"/><linearGradient id="G" gradientUnits="userSpaceOnUse" x1="542.942" y1="450.621" x2="557.643" y2="442.186"><stop offset="0" stop-color="#fff"/><stop offset="1" stop-color="#272425"/></linearGradient><path opacity=".16" fill="url(#G)" d="M561.4 449.6c-.8-.9-2.6-1.9-6.5-2-6.3-.1-12.6-1.9-15.1-2.7.1-1.4.2-2.2.2-2.2 3.6 3.9 22.7 2.3 21.4 6.9z"/><path fill="#282d52" d="M561 451.1s-2 7.9-6.4 9.2-13.6-3.2-15-2.4-1.5 15.6 5.9 16.4c7.3.8 14-2.8 15.3-11.2 1.3-8.3 3.7-11.6 3.7-11.6l-3.5-.4z"/><path fill="#fff" d="M554.2 485l10.5-7.8 3.6 2.1-9 11.7-5.1-4.2-5.2 4.2-3.8-10.3 2.9-1.9z"/><path fill="#ac2e00" d="M574.9 497.3s-16.1 37.5-19.8 39.5-38.9 22.5-38.9 22.5l4.4 9.4 50-21.1c6-3 21.4-37.2 23.5-42.9 2-5.8-4.7-25.4-19.2-7.4z"/><g class="H"><path d="M50.3 726.4c-4.3 0-9.4-9.6-16.3-22.6l-.1-.1c-6.8-13-9.3-20.8-7.7-24.6.5-1.2 1.3-2 2.6-2.3 3-1 7.6.9 12.3 5.2 4.9 4.5 9.2 10.8 11.5 17.4 4.1 11.2 3.4 20.8 1 24.9-.8 1.3-1.7 2.1-2.7 2.3-.3-.2-.5-.2-.6-.2zm-19.9-49.1c-.5 0-1 .1-1.4.2-1 .3-1.6.9-2 1.8-1.4 3.5 1.1 11.3 7.7 23.9l.1.1c6.3 11.9 11.8 22.2 15.5 22.2h.3c.7-.1 1.5-.7 2.1-1.8 3.1-5.4 1.8-16.2-1-24.1h0c-2.3-6.4-6.4-12.6-11.2-17-3.8-3.5-7.4-5.3-10.1-5.3z"/><path d="M56.6 707.3h-.3c-.6-.1-1.2-.6-1.7-1.3-1.4-2.3-1.8-7.7.5-14 2.9-8.1 9.9-13.8 13.5-12.7.7.2 1.2.7 1.5 1.4.9 2.2-.4 6.5-4.3 13.8v.1c-3.8 7.3-6.6 12.7-9.2 12.7zM67.7 680c-3.1 0-9 4.9-11.6 12.2h0c-1.6 4.4-2.3 10.3-.6 13.2.3.5.7.8 1 .9 2 .3 5.2-5.7 8.6-12.2v-.1c1.3-2.5 5.4-10.3 4.2-13.1-.2-.4-.5-.7-1-.9-.2.1-.4 0-.6 0z"/><ellipse cx="49.7" cy="698" rx="8.3" ry="27.4"/></g><path d="M49.7 720.2a.47.47 0 0 1-.5-.5v-43.5a.47.47 0 0 1 .5-.5.47.47 0 0 1 .5.5v43.5c0 .3-.3.5-.5.5z" class="K"/><path d="M71.5 709.1c-8.6 9.4-13.9 17.4-17.2 16.4-3.2-.8-5.1-10.7 1.2-22.2 6.2-11.6 20.1-17.7 25.5-14.7 5.5 3.1-1.1 11.2-9.5 20.5z" class="H"/><path d="M55.6 721.9h-.1c-.2-.1-.4-.4-.3-.6 4-11.2 11.4-21.5 21.4-29.7.2-.2.5-.1.7.1s.1.5-.1.7c-9.8 8.1-17.1 18.3-21.1 29.3-.1 0-.3.2-.5.2z" class="K"/><path d="M42.5 708c5.7 9.4 5.5 18 2.8 19.1-2.8 1.1-8.1-5.4-14.8-13.7s-11.4-15.8-7.6-18c3.7-2.1 13.9 3.2 19.6 12.6z" class="H"/><path d="M43.7 724c-.2 0-.4-.1-.4-.3-4.1-9.2-10.1-17.6-17.7-25-.2-.2-.2-.5 0-.7s.5-.2.7 0c7.6 7.6 13.7 16.1 17.9 25.3.1.2 0 .5-.2.6s-.2.1-.3.1z" class="K"/><path fill="#bbabb1" d="M59.1 754.2H39.9c-2.1 0-3.9-1.5-4.3-3.6l-5.4-26.9c-.3-1.4.8-2.6 2.2-2.6h34.3c1.4 0 2.4 1.3 2.2 2.6l-5.4 26.9c-.5 2.2-2.3 3.6-4.4 3.6z"/><path d="M764.8 577.1l-5.7 12.8 25.6 11.5 5.7-12.8-25.6-11.5zm19 22l-22.4-10 2.9-6.4 22.4 10-2.9 6.4zm-16.1-28.4l25.6 11.5-2.2 4.8-25.6-11.5 2.2-4.8zm-9.3 20.8L784 603l-2.2 4.8-25.6-11.5 2.2-4.8z" fill="#fed0c0"/><path fill="#df7a52" d="M959.6 207.1v15.2h53.1v-15.2h-53.1zm0 0v15.2h53.1v-15.2h-53.1zm68.1-40.4h-83c-1.5 0-2.7 1.3-2.7 2.8v82.8c0 1.6 1.2 2.8 2.7 2.8h83c1.5 0 2.7-1.3 2.7-2.8v-82.8c0-1.5-1.2-2.8-2.7-2.8zm-11.2 74.9h-60.7v-11.4h60.7v11.4zm0-15.5h-60.7v-30.3h60.7v30.3zm0-34.4h-60.7v-11.4h60.7v11.4zm-3.8 15.4h-53.1v15.2h53.1v-15.2z"/><path fill="#eebc2c" d="M677.6 536.9l2.9-2.9-2.7-3.5-3.6 2.1c-.7-.6-1.5-1-2.4-1.4v-4.1l-4.4-.5-1 4c-.9.1-1.8.4-2.7.7l-2.9-2.9-3.5 2.7 2.1 3.6c-.6.7-1 1.5-1.4 2.4h-4.1l-.5 4.4 4 1c.1.9.4 1.8.7 2.6l-2.9 2.9 2.7 3.5 3.6-2.1c.7.6 1.5 1 2.4 1.4v4.1l4.4.5 1-4c.9-.1 1.8-.4 2.6-.7l2.9 2.9 3.5-2.7-2.1-3.6c.6-.7 1-1.5 1.4-2.4h4.1l.5-4.4-4-1c0-.9-.3-1.8-.6-2.6zm-8.3 9.2c-2.8.8-5.8-.9-6.5-3.7-.8-2.8.9-5.8 3.7-6.5 2.8-.8 5.8.9 6.6 3.7a5.36 5.36 0 0 1-3.8 6.5z"/></svg>