<svg xmlns="http://www.w3.org/2000/svg" xmlns:xlink="http://www.w3.org/1999/xlink" viewBox="0 0 920 540" xmlns:v="https://vecta.io/nano"><circle fill="#f5a31e" cx="109.1" cy="240.1" r="1.4"/><g fill="#02c7a8"><circle cx="490.1" cy="237.6" r="1.4"/><circle cx="119.1" cy="155.4" r="1.4"/></g><circle fill="#ff6d53" cx="146.3" cy="101.3" r="21.1"/><path fill="#fff" d="M140.4 106.7c0-.5.2-.9.6-1.4.3-.3.8-.6 1.4-.6.3 0 .8.2 1.2.5.8.5 1.6.8 2.5.8.6 0 1.1-.2 1.6-.5.3-.3.6-.6.6-1.1s-.2-.9-.5-1.4c-.3-.3-.9-.6-1.9-1.1-1.7-.6-2.8-1.4-3.6-2.3s-1.1-2-1.1-3.3c0-1.1.3-2 .9-2.8a4.51 4.51 0 0 1 2.5-1.7v-.9c0-.5.2-.8.5-1.1s.6-.5 1.1-.5.8.2 1.1.5.5.6.5 1.1v.8c.8.2 1.6.5 2.3.8.6.3.9.9.9 1.7 0 .5-.2.9-.5 1.2s-.8.5-1.2.5c-.3 0-.6-.2-1.1-.3-.5-.3-.9-.3-1.2-.3-.9 0-1.4.3-1.4 1.1 0 .3.2.8.5.9.3.3 1.1.6 2 1.1 3 1.2 4.3 3.1 4.3 5.9 0 1.4-.3 2.5-1.1 3.4s-1.9 1.6-3.3 1.9v.9c0 .5-.2.8-.5 1.1s-.6.5-1.1.5-.8-.2-1.1-.5-.5-.6-.5-1.1v-.8c-1.4-.2-2.6-.8-3.7-1.6-.6-.3-.7-.8-.7-1.4z"/><path fill="#feaa99" d="M920 534.2V5.8c0-3.2-1.7-5.8-3.8-5.8h-94.4c-13.8 12.8-30.2 53.6-34.6 76-7.6 38.3-24.2 65-32.6 72.1-22.1 18.6-46.9 14.1-70.8 22.7-25.9 9.4-50 33.5-61.4 69.1-11 34.5-7.8 63.4-14.2 98.9-6.5 36-29.8 64-52 77-23.5 13.8-46.2 24.2-50.5 63.3-2.2 20.1-1 40.9 2.7 60.9h407.8c2.1 0 3.8-2.6 3.8-5.8z"/><circle fill="#faded3" cx="520.2" cy="142.4" r="34.2"/><ellipse fill="#feaa99" cx="364.6" cy="400.4" rx="121.3" ry="13.1"/><path fill="#010b15" d="M528.9 335.6H203.4V151c0-4.7 3.8-8.6 8.6-8.6h308.3c4.7 0 8.6 3.8 8.6 8.6v184.6z"/><path fill="#143544" d="M203.4,335.6V150.8c0-4.6,3.8-8.5,8.5-8.5h308.5c4.6,0,8.5,3.8,8.5,8.5L203.4,335.6z" opacity=".5"/><path fill="#fce8e1" d="M203.4 335.6h325.5v21.5c0 4.7-3.8 8.6-8.6 8.6H212c-4.7 0-8.6-3.8-8.6-8.6v-21.5z"/><path fill="#fff" d="M215.8 154.8h300.7v169H215.8z"/><path fill="#f7f7f8" d="M215.8 323.7V154.8h300.8v3l-293 165.9z"/><circle fill="#fff" cx="366.2" cy="148.3" r="1.9"/><path fill="#fce8e1" d="M415.6 401.6s-9.6-2.7-12.1-3.6c-1.2-.5-1.8-3.1-1.9-4.2l-3.1-28.1h-65l-3.1 28.1c-.1 1.1-.6 3.6-1.9 4.2-2.4.9-12.1 3.6-12.1 3.6-.5 0-.8.3-.8.8s.3.8.8.8h99.2c.5 0 .8-.3.8-.8.1-.3-.3-.8-.8-.8z"/><path fill="#fcd9d0" d="M399.3 371.7l-67.3 9.8 1.7-15.7h64.9z"/><path d="M172.3 232.4c5.1-.9 9.2-5 10.1-10.1 0-.2.3-.2.5 0 .9 5.1 5 9.2 10.1 10.1.2 0 .2.3 0 .5-5.1.9-9.2 5-10.1 10.1 0 .2-.3.2-.5 0-.9-5.1-5-9.2-10.1-10.1-.2-.2-.2-.5 0-.5zm368.3 22.2c5.1-.9 9.2-5 10.1-10.1 0-.2.3-.2.5 0 .9 5.1 5 9.2 10.1 10.1.2 0 .2.3 0 .5-5.1.9-9.2 5-10.1 10.1 0 .2-.3.2-.5 0-.9-5.1-5-9.2-10.1-10.1-.2-.1-.2-.5 0-.5z" fill="#c8417d"/><path fill="#ff6d53" d="M161.2 215.4c2.9-.6 5.2-2.8 5.8-5.8 0-.1.2-.1.2 0 .6 2.9 2.8 5.2 5.8 5.8.1 0 .1.2 0 .2-2.9.6-5.2 2.8-5.8 5.8 0 .1-.2.1-.2 0-.6-2.9-2.8-5.2-5.8-5.8-.2-.1-.2-.2 0-.2z"/><path fill="#02c7a8" d="M559.4 219c2.9-.6 5.2-2.8 5.8-5.8 0-.1.2-.1.2 0 .6 2.9 2.8 5.2 5.8 5.8.1 0 .1.2 0 .2-2.9.6-5.2 2.8-5.8 5.8 0 .1-.2.1-.2 0-.6-2.9-2.8-5.2-5.8-5.8-.1.1-.1-.2 0-.2z"/><path fill="#f5a31e" d="M537.3 184.7c2.9-.6 5.2-2.8 5.8-5.8 0-.1.2-.1.2 0 .6 2.9 2.8 5.2 5.8 5.8.1 0 .1.2 0 .2-2.9.6-5.2 2.8-5.8 5.8 0 .1-.2.1-.2 0-.6-2.9-2.8-5.2-5.8-5.8-.3 0-.3-.2 0-.2z"/><g fill="#ff6d53"><circle cx="194.9" cy="279.7" r="1.6"/><circle cx="540.5" cy="225.1" r="1.6"/><circle cx="467.4" cy="374.5" r="1.6"/></g><circle fill="#f5a31e" cx="272" cy="376.6" r="1.6"/><path fill="#e6eaed" d="M512 174.1H219.7v-14.4c0-1.7 1.3-3 3-3H509c1.7 0 3 1.3 3 3v14.4z"/><circle fill="#ff5f6d" cx="232.2" cy="165.4" r="2.8"/><circle fill="#f5a31e" cx="241.3" cy="165.4" r="2.8"/><circle fill="#02c7a8" cx="250.3" cy="165.4" r="2.8"/><path fill="#fff" d="M219.7 174.1h292.4v146.7H219.7z"/><path fill="#ff5f6d" d="M494.3 199.3h-257c-.8 0-1.4-.6-1.4-1.4v-15.2c0-.8.6-1.4 1.4-1.4h257c.8 0 1.4.6 1.4 1.4v15.2c.1.7-.6 1.4-1.4 1.4z"/><path fill="#fff" d="M252 189.6h-2.5V187a.47.47 0 0 0-.5-.5h-.3a.47.47 0 0 0-.5.5v2.5h-2.5a.47.47 0 0 0-.5.5v.3a.47.47 0 0 0 .5.5h2.5v2.5a.47.47 0 0 0 .5.5h.3a.47.47 0 0 0 .5-.5v-2.5h2.5a.47.47 0 0 0 .5-.5v-.3c0-.2-.2-.4-.5-.4z"/><path fill="#ff5f6d" d="M494.6 291.1H237.1a1.11 1.11 0 0 1-1.1-1.1v-15.8a1.11 1.11 0 0 1 1.1-1.1h257.6a1.11 1.11 0 0 1 1.1 1.1V290c0 .6-.5 1.1-1.2 1.1z"/><use xlink:href="#C" fill="#fff"/><path fill="#ff5f6d" d="M494.6 313.7H237.1a1.11 1.11 0 0 1-1.1-1.1v-15.8a1.11 1.11 0 0 1 1.1-1.1h257.6a1.11 1.11 0 0 1 1.1 1.1v15.8c0 .6-.5 1.1-1.2 1.1z"/><use xlink:href="#C" y="22.6" fill="#fff"/><path fill="#ff5f6d" d="M495.8 221.7H235.9v-16.9c0-.7.5-1.2 1.2-1.2h257.5c.7 0 1.2.5 1.2 1.2v16.9z"/><path fill="#ffc8d2" d="M235.9 221.5h259.8v46.9H235.9z"/><path fill="#fff" d="M252 211.8h-6.4a.47.47 0 0 0-.5.5v.3a.47.47 0 0 0 .5.5h6.4a.47.47 0 0 0 .5-.5v-.3a.47.47 0 0 0-.5-.5z"/><circle fill="#faded3" cx="162.5" cy="416.9" r="13.3"/><linearGradient id="A" gradientUnits="userSpaceOnUse" x1="159.631" y1="316.618" x2="120.085" y2="355.318"><stop offset="0" stop-color="#f37c50"/><stop offset="1" stop-color="#f05f6e"/></linearGradient><path fill="url(#A)" d="M128 333.9v7h24.4v-7H128zm0 0v7h24.4v-7H128zm31.3-18.6h-38.2c-.7 0-1.3.6-1.3 1.3v38.1c0 .7.6 1.3 1.3 1.3h38.2c.7 0 1.3-.6 1.3-1.3v-38.1c0-.7-.6-1.3-1.3-1.3zm-5.1 34.4h-27.9v-5.2h27.9v5.2zm0-7.1h-27.9v-14h27.9v14zm0-15.8h-27.9v-5.2h27.9v5.2zm-1.8 7.1H128v7h24.4v-7z"/><defs ><path id="C" d="M252 281.4h-2.5v-2.5a.47.47 0 0 0-.5-.5h-.3a.47.47 0 0 0-.5.5v2.5h-2.5a.47.47 0 0 0-.5.5v.3a.47.47 0 0 0 .5.5h2.5v2.5a.47.47 0 0 0 .5.5h.3a.47.47 0 0 0 .5-.5v-2.5h2.5a.47.47 0 0 0 .5-.5v-.3a.47.47 0 0 0-.5-.5z"/></defs></svg>