<svg xmlns="http://www.w3.org/2000/svg" viewBox="0 0 512 512"  xmlns:v="https://vecta.io/nano"><path d="M0 128v256h512V128H0zm480 224H32V224h448v128zM0 0h512v96H0V0zm0 416h512v96H0v-96zm67.5-146h377v71h-377v-71z" fill="#fc7b4f"/><path d="M65.3 44.5H52V31.1a2.69 2.69 0 0 0-2.7-2.7h-1.8a2.69 2.69 0 0 0-2.7 2.7v13.3H31.6a2.69 2.69 0 0 0-2.7 2.7v1.8a2.69 2.69 0 0 0 2.7 2.7h13.3v13.3a2.69 2.69 0 0 0 2.7 2.7h1.8a2.69 2.69 0 0 0 2.7-2.7V51.5h13.3a2.69 2.69 0 0 0 2.7-2.7V47c-.2-1.4-1.4-2.5-2.8-2.5zm.3 416H52.3v-13.3a2.69 2.69 0 0 0-2.7-2.7h-1.8a2.69 2.69 0 0 0-2.7 2.7v13.3H31.9a2.69 2.69 0 0 0-2.7 2.7v1.8a2.69 2.69 0 0 0 2.7 2.7h13.3V481a2.69 2.69 0 0 0 2.7 2.7h1.8a2.69 2.69 0 0 0 2.7-2.7v-13.3h13.3a2.69 2.69 0 0 0 2.7-2.7v-1.8c-.2-1.6-1.3-2.7-2.8-2.7zm54-158.1h-11.5V291a2.26 2.26 0 0 0-2.3-2.3h-1.5a2.26 2.26 0 0 0-2.3 2.3v11.5H90.6a2.26 2.26 0 0 0-2.3 2.3v1.5a2.26 2.26 0 0 0 2.3 2.3h11.5V320a2.26 2.26 0 0 0 2.3 2.3h1.5a2.26 2.26 0 0 0 2.3-2.3v-11.5h11.5a2.26 2.26 0 0 0 2.3-2.3v-1.5c-.1-1.2-1.1-2.3-2.4-2.3zM65.1 168.2H32.3c-1.4 0-2.6 1.3-2.6 2.9v1.9c0 1.6 1.2 2.9 2.6 2.9h32.8c1.4 0 2.6-1.3 2.6-2.9v-1.9c0-1.6-1.1-2.9-2.6-2.9z" fill="#fff"/></svg>