<svg xmlns="http://www.w3.org/2000/svg" height="300" width="300" fill="#fc7b4f" viewBox="0 0 100 100"  xmlns:v="https://vecta.io/nano"><path d="M10.5 70c-.2 0-.4-.2-.4-.5V26.6h66.4v17.6c2.7.2 5.2.9 7.6 1.9V15a6.02 6.02 0 0 0-6-6H8.5a6.02 6.02 0 0 0-6 6v56.5a6.02 6.02 0 0 0 6 6h44c-1-2.4-1.7-4.9-1.9-7.6H10.5zm17.8-54.8a2.65 2.65 0 0 1 2.6 2.6 2.65 2.65 0 0 1-2.6 2.6 2.65 2.65 0 0 1-2.6-2.6c0-1.5 1.1-2.6 2.6-2.6zm-7.9 0a2.65 2.65 0 0 1 2.6 2.6 2.65 2.65 0 0 1-2.6 2.6 2.65 2.65 0 0 1-2.6-2.6c0-1.5 1.1-2.6 2.6-2.6zm-7.9 0a2.65 2.65 0 0 1 2.6 2.6 2.65 2.65 0 0 1-2.6 2.6 2.65 2.65 0 0 1-2.6-2.6c0-1.5 1.2-2.6 2.6-2.6zm84.4 69.5l-7.4-7.4c4.3-6.9 3.4-16-2.5-22-7-7-18.3-7-25.2 0-7 7-7 18.3 0 25.2 6 6 15.1 6.8 22 2.5l7.4 7.4a1.82 1.82 0 0 0 2.7 0l3-3c.8-.7.8-1.9 0-2.7zm-15.7-9.9c-3.8 3.8-9.9 3.8-13.7 0s-3.8-9.9 0-13.7 9.9-3.8 13.7 0c3.8 3.7 3.8 9.9 0 13.7z"/></svg>