<svg xmlns="http://www.w3.org/2000/svg" height="300" width="300" fill="#fc7b4f" viewBox="0 0 8.467 8.467"  xmlns:v="https://vecta.io/nano"><path d="M4.222.001a.265.265 0 0 0-.129.041L.75 2.133a.265.265 0 0 0 0 .45l3.344 2.091a.265.265 0 0 0 .279 0l3.344-2.091a.265.265 0 0 0 0-.45L4.373.041a.265.265 0 0 0-.15-.041zM1.391 3.608L.75 4.01a.265.265 0 0 0 0 .448l3.344 2.094a.265.265 0 0 0 .279 0l3.344-2.094a.265.265 0 0 0 0-.448l-.641-.402-2.422 1.515a.529.529 0 0 1-.002.001c-.255.158-.582.158-.837 0a.529.529 0 0 1-.002-.001zm.001 1.876l-.642.402a.265.265 0 0 0 0 .449l3.344 2.092a.265.265 0 0 0 .279 0l3.344-2.092a.265.265 0 0 0 0-.449l-.642-.402L4.653 7a.529.529 0 0 1-.002.001c-.255.158-.582.158-.837 0A.529.529 0 0 1 3.813 7z"/></svg>