<svg width="40" height="40" viewBox="0 0 40 40" fill="none" xmlns="http://www.w3.org/2000/svg">
<rect width="40" height="40" rx="4" fill="#151515"/>
<path d="M20 10C14.486 10 10 14.486 10 20C10 25.514 14.486 30 20 30C25.514 30 30 25.514 30 20C30 14.486 25.514 10 20 10ZM20 28.8281C15.1321 28.8281 11.1719 24.8679 11.1719 20C11.1719 15.1321 15.1321 11.1719 20 11.1719C24.8679 11.1719 28.8281 15.1321 28.8281 20C28.8281 24.8679 24.8679 28.8281 20 28.8281Z" fill="white"/>
<path d="M20 20.5469C22.2616 20.5469 24.1016 18.7069 24.1016 16.4453C24.1016 14.1837 22.2616 12.3438 20 12.3438C17.7384 12.3438 15.8984 14.1837 15.8984 16.4453C15.8984 18.7069 17.7384 20.5469 20 20.5469ZM20 13.5156C21.6154 13.5156 22.9297 14.8299 22.9297 16.4453C22.9297 18.0607 21.6154 19.375 20 19.375C18.3846 19.375 17.0703 18.0607 17.0703 16.4453C17.0703 14.8299 18.3846 13.5156 20 13.5156Z" fill="white"/>
<path d="M26.5879 23.1032C25.8092 22.2234 24.6894 21.7188 23.5156 21.7188H16.4844C15.3106 21.7188 14.1908 22.2234 13.4121 23.1032L13.1344 23.4171L13.3417 23.7814C14.7017 26.1715 17.253 27.6562 20 27.6562C22.747 27.6562 25.2983 26.1715 26.6584 23.7813L26.8656 23.4171L26.5879 23.1032ZM20 26.4844C17.8228 26.4844 15.7906 25.3829 14.5944 23.5822C15.1199 23.1388 15.7889 22.8906 16.4844 22.8906H23.5156C24.2111 22.8906 24.8801 23.1388 25.4056 23.5822C24.2094 25.3829 22.1772 26.4844 20 26.4844Z" fill="white"/>
</svg>
