<?xml version="1.0" encoding="utf-8"?>
<!-- Generator: Adobe Illustrator 17.0.0, SVG Export Plug-In . SVG Version: 6.00 Build 0)  -->
<!DOCTYPE svg PUBLIC "-//W3C//DTD SVG 1.1//EN" "http://www.w3.org/Graphics/SVG/1.1/DTD/svg11.dtd">
<svg version="1.1" id="Layer_1" xmlns="http://www.w3.org/2000/svg" xmlns:xlink="http://www.w3.org/1999/xlink" x="0px" y="0px"
	 width="173.504px" height="27.24px" viewBox="0 0 173.504 27.24" enable-background="new 0 0 173.504 27.24" xml:space="preserve">
<g>
	<g>
		<path fill="#FFFFFF" d="M35.334,23.084v-21h8.25v2.25h-5.25v6.75h3.75v2.25h-3.75v7.5h5.25v2.25H35.334z"/>
		<path fill="#FFFFFF" d="M47.908,23.295c-0.836,0-1.545-0.361-2.127-1.084s-0.873-1.537-0.873-2.443
			c0-0.727,0.123-1.387,0.369-1.98s0.506-1.068,0.779-1.424s0.73-0.723,1.371-1.102s1.125-0.639,1.453-0.779
			s0.898-0.371,1.711-0.691c0.141-0.055,0.246-0.098,0.316-0.129v-1.078c0-0.758-0.105-1.346-0.316-1.764s-0.605-0.627-1.184-0.627
			c-0.516,0-0.885,0.178-1.107,0.533s-0.35,0.846-0.381,1.471c-0.008,0.086-0.012,0.215-0.012,0.387h-3
			c0.016-1.438,0.418-2.582,1.207-3.434s1.887-1.277,3.293-1.277c1.398,0,2.498,0.432,3.299,1.295s1.201,2.002,1.201,3.416v6.75
			c0,1.563,0.129,2.813,0.387,3.75h-2.988l-0.398-2.25c-0.156,0.313-0.283,0.555-0.381,0.727s-0.24,0.385-0.428,0.639
			s-0.375,0.449-0.563,0.586s-0.422,0.256-0.703,0.357S48.244,23.295,47.908,23.295z M49.408,20.834
			c0.211,0,0.416-0.063,0.615-0.188s0.35-0.246,0.451-0.363s0.227-0.273,0.375-0.469c0.023-0.039,0.043-0.066,0.059-0.082v-4.148
			c-0.125,0.086-0.332,0.219-0.621,0.398s-0.52,0.326-0.691,0.439s-0.379,0.27-0.621,0.469s-0.43,0.391-0.563,0.574
			s-0.25,0.408-0.352,0.674s-0.152,0.543-0.152,0.832C47.908,20.213,48.408,20.834,49.408,20.834z"/>
		<path fill="#FFFFFF" d="M60.424,23.295c-1.234,0-2.225-0.367-2.971-1.102s-1.256-1.688-1.529-2.859l2.25-0.75
			c0.539,1.5,1.289,2.25,2.25,2.25c0.477,0,0.846-0.131,1.107-0.393s0.393-0.631,0.393-1.107c0-0.695-0.25-1.273-0.75-1.734l-3-2.25
			c-0.336-0.227-0.617-0.439-0.844-0.639s-0.457-0.443-0.691-0.732s-0.412-0.613-0.533-0.973s-0.182-0.75-0.182-1.172
			c0-1.281,0.408-2.262,1.225-2.941s1.908-1.02,3.275-1.02c0.648,0,1.234,0.104,1.758,0.311s0.963,0.498,1.318,0.873
			s0.648,0.791,0.879,1.248s0.412,0.967,0.545,1.529l-2.25,0.75c-0.109-0.297-0.219-0.553-0.328-0.768s-0.256-0.447-0.439-0.697
			s-0.4-0.443-0.65-0.58s-0.527-0.205-0.832-0.205c-0.477,0-0.846,0.131-1.107,0.393s-0.393,0.631-0.393,1.107
			c0,0.469,0.25,0.891,0.75,1.266l3,2.25c0.336,0.266,0.623,0.521,0.861,0.768s0.471,0.531,0.697,0.855s0.398,0.686,0.516,1.084
			s0.176,0.824,0.176,1.277c0,1.281-0.408,2.262-1.225,2.941S61.791,23.295,60.424,23.295z"/>
		<path fill="#FFFFFF" d="M66.365,26.834v-2.25c0.594,0,1.068-0.039,1.424-0.117s0.623-0.217,0.803-0.416s0.295-0.418,0.346-0.656
			s0.076-0.568,0.076-0.99l-3.398-14.32h3c1.164,6.43,1.793,9.93,1.887,10.5c0.164-1.055,0.35-2.166,0.557-3.334
			s0.441-2.457,0.703-3.867s0.463-2.51,0.604-3.299h3l-3.75,15.75c-0.25,1.086-0.777,1.857-1.582,2.314s-1.926,0.686-3.363,0.686
			H66.365z"/>
		<path fill="#FFFFFF" d="M80.662,23.084l4.5-21h3l4.5,21h-3l-1.125-5.25h-3.75l-1.125,5.25H80.662z M85.162,15.584h3l-1.5-9
			L85.162,15.584z"/>
		<path fill="#FFFFFF" d="M97.971,23.295c-0.727,0-1.357-0.121-1.893-0.363s-0.963-0.559-1.283-0.949s-0.578-0.889-0.773-1.494
			s-0.33-1.211-0.404-1.816s-0.119-1.311-0.135-2.115c-0.023-0.648-0.023-1.301,0-1.957c0.016-0.797,0.061-1.5,0.135-2.109
			s0.211-1.217,0.41-1.822s0.457-1.102,0.773-1.488s0.742-0.701,1.277-0.943s1.166-0.363,1.893-0.363
			c1.578,0,2.711,0.426,3.398,1.277s1.055,2.113,1.102,3.785v0.398h-3v-0.422c-0.008-0.375-0.033-0.703-0.076-0.984
			s-0.113-0.563-0.211-0.844s-0.25-0.498-0.457-0.65s-0.459-0.229-0.756-0.229s-0.547,0.088-0.75,0.264s-0.357,0.428-0.463,0.756
			s-0.182,0.666-0.229,1.014s-0.074,0.748-0.082,1.201c-0.031,0.969-0.031,2.43,0,4.383c0.016,0.43,0.047,0.807,0.094,1.131
			s0.123,0.637,0.229,0.938s0.26,0.533,0.463,0.697s0.449,0.246,0.738,0.246c0.266,0,0.494-0.051,0.686-0.152
			s0.338-0.227,0.439-0.375s0.182-0.348,0.24-0.598s0.096-0.482,0.111-0.697s0.023-0.486,0.023-0.814v-0.363h3v0.387
			c-0.023,0.789-0.121,1.486-0.293,2.092s-0.432,1.135-0.779,1.588s-0.809,0.799-1.383,1.037S98.76,23.295,97.971,23.295z"/>
		<path fill="#FFFFFF" d="M108.084,23.295c-0.727,0-1.357-0.121-1.893-0.363s-0.963-0.559-1.283-0.949s-0.578-0.889-0.773-1.494
			s-0.33-1.211-0.404-1.816s-0.119-1.311-0.135-2.115c-0.023-0.648-0.023-1.301,0-1.957c0.016-0.797,0.061-1.5,0.135-2.109
			s0.211-1.217,0.41-1.822s0.457-1.102,0.773-1.488s0.742-0.701,1.277-0.943s1.166-0.363,1.893-0.363
			c1.578,0,2.711,0.426,3.398,1.277s1.055,2.113,1.102,3.785v0.398h-3v-0.422c-0.008-0.375-0.033-0.703-0.076-0.984
			s-0.113-0.563-0.211-0.844s-0.25-0.498-0.457-0.65s-0.459-0.229-0.756-0.229s-0.547,0.088-0.75,0.264s-0.357,0.428-0.463,0.756
			s-0.182,0.666-0.229,1.014s-0.074,0.748-0.082,1.201c-0.031,0.969-0.031,2.43,0,4.383c0.016,0.43,0.047,0.807,0.094,1.131
			s0.123,0.637,0.229,0.938s0.26,0.533,0.463,0.697s0.449,0.246,0.738,0.246c0.266,0,0.494-0.051,0.686-0.152
			s0.338-0.227,0.439-0.375s0.182-0.348,0.24-0.598s0.096-0.482,0.111-0.697s0.023-0.486,0.023-0.814v-0.363h3v0.387
			c-0.023,0.789-0.121,1.486-0.293,2.092s-0.432,1.135-0.779,1.588s-0.809,0.799-1.383,1.037S108.873,23.295,108.084,23.295z"/>
		<path fill="#FFFFFF" d="M122.123,21.889c-0.695,0.938-1.848,1.406-3.457,1.406s-2.762-0.469-3.457-1.406s-1.043-2.289-1.043-4.055
			v-4.5c0-1.766,0.348-3.117,1.043-4.055s1.848-1.406,3.457-1.406s2.762,0.469,3.457,1.406s1.043,2.289,1.043,4.055v4.5
			C123.166,19.6,122.818,20.952,122.123,21.889z M118.109,20.741c0.16,0.063,0.346,0.094,0.557,0.094s0.396-0.031,0.557-0.094
			s0.293-0.139,0.398-0.229s0.193-0.223,0.264-0.398s0.125-0.33,0.164-0.463s0.066-0.324,0.082-0.574s0.025-0.447,0.029-0.592
			s0.006-0.361,0.006-0.65v-4.5c0-0.289-0.002-0.506-0.006-0.65s-0.014-0.342-0.029-0.592s-0.043-0.441-0.082-0.574
			s-0.094-0.287-0.164-0.463s-0.158-0.309-0.264-0.398s-0.238-0.166-0.398-0.229s-0.346-0.094-0.557-0.094s-0.396,0.031-0.557,0.094
			s-0.293,0.139-0.398,0.229s-0.193,0.223-0.264,0.398s-0.125,0.33-0.164,0.463s-0.066,0.324-0.082,0.574s-0.025,0.447-0.029,0.592
			s-0.006,0.361-0.006,0.65v4.5c0,0.289,0.002,0.506,0.006,0.65s0.014,0.342,0.029,0.592s0.043,0.441,0.082,0.574
			s0.094,0.287,0.164,0.463s0.158,0.309,0.264,0.398S117.949,20.678,118.109,20.741z"/>
		<path fill="#FFFFFF" d="M125.627,23.084v-15h3v2.004c0.305-0.594,0.748-1.111,1.33-1.553s1.229-0.662,1.939-0.662
			c0.023,0,0.184,0.016,0.48,0.047v3.316c-0.555-0.219-1.109-0.328-1.664-0.328c-0.625,0-1.129,0.188-1.512,0.563
			s-0.574,0.871-0.574,1.488v10.125H125.627z"/>
		<path fill="#FFFFFF" d="M137.135,23.295c-0.664,0-1.244-0.188-1.74-0.563s-0.879-0.883-1.148-1.523s-0.471-1.307-0.604-1.998
			s-0.215-1.436-0.246-2.232c-0.016-0.367-0.016-1.266,0-2.695c0.016-0.516,0.039-0.982,0.07-1.4s0.084-0.854,0.158-1.307
			s0.168-0.854,0.281-1.201s0.264-0.684,0.451-1.008s0.406-0.592,0.656-0.803s0.551-0.379,0.902-0.504s0.742-0.188,1.172-0.188
			c0.336,0,0.65,0.045,0.943,0.135s0.572,0.23,0.838,0.422s0.479,0.361,0.639,0.51s0.369,0.359,0.627,0.633V2.096h3v20.988h-3
			v-1.359c-0.453,0.469-0.914,0.848-1.383,1.137S137.744,23.295,137.135,23.295z M137.885,20.834c0.727,0,1.477-0.156,2.25-0.469
			v-9.434c-0.672-0.398-1.422-0.598-2.25-0.598c-0.297,0-0.547,0.072-0.75,0.217s-0.355,0.355-0.457,0.633s-0.176,0.563-0.223,0.855
			s-0.074,0.639-0.082,1.037c-0.031,1.75-0.031,3.137,0,4.16c0.008,0.5,0.035,0.945,0.082,1.336s0.123,0.768,0.229,1.131
			s0.26,0.643,0.463,0.838S137.596,20.834,137.885,20.834z"/>
		<path fill="#FFFFFF" d="M146.064,5.834v-3h3v3H146.064z M146.064,23.084v-15h3v15H146.064z"/>
		<path fill="#FFFFFF" d="M159.611,21.889c-0.695,0.938-1.848,1.406-3.457,1.406s-2.762-0.469-3.457-1.406s-1.043-2.289-1.043-4.055
			v-4.5c0-1.766,0.348-3.117,1.043-4.055s1.848-1.406,3.457-1.406s2.762,0.469,3.457,1.406s1.043,2.289,1.043,4.055v4.5
			C160.654,19.6,160.306,20.952,159.611,21.889z M155.597,20.741c0.16,0.063,0.346,0.094,0.557,0.094s0.396-0.031,0.557-0.094
			s0.293-0.139,0.398-0.229s0.193-0.223,0.264-0.398s0.125-0.33,0.164-0.463s0.066-0.324,0.082-0.574s0.025-0.447,0.029-0.592
			s0.006-0.361,0.006-0.65v-4.5c0-0.289-0.002-0.506-0.006-0.65s-0.014-0.342-0.029-0.592s-0.043-0.441-0.082-0.574
			s-0.094-0.287-0.164-0.463s-0.158-0.309-0.264-0.398s-0.238-0.166-0.398-0.229s-0.346-0.094-0.557-0.094s-0.396,0.031-0.557,0.094
			s-0.293,0.139-0.398,0.229s-0.193,0.223-0.264,0.398s-0.125,0.33-0.164,0.463s-0.066,0.324-0.082,0.574s-0.025,0.447-0.029,0.592
			s-0.006,0.361-0.006,0.65v4.5c0,0.289,0.002,0.506,0.006,0.65s0.014,0.342,0.029,0.592s0.043,0.441,0.082,0.574
			s0.094,0.287,0.164,0.463s0.158,0.309,0.264,0.398S155.437,20.678,155.597,20.741z"/>
		<path fill="#FFFFFF" d="M163.115,23.084v-15h3v1.617c0.445-0.406,0.809-0.717,1.09-0.932s0.67-0.418,1.166-0.609
			s1.025-0.287,1.588-0.287c0.641,0,1.16,0.234,1.559,0.703s0.598,1.043,0.598,1.723v12.785h-3v-11.25
			c0-0.523-0.074-0.904-0.223-1.143s-0.449-0.357-0.902-0.357c-0.258,0-0.514,0.053-0.768,0.158s-0.443,0.203-0.568,0.293
			s-0.305,0.232-0.539,0.428v11.871H163.115z"/>
	</g>
	<g>
		<path fill="#FFFFFF" d="M0,7.072v13.167h26.333V7.072H0z M24.688,18.593H1.646v-6.583h23.042V18.593z"/>
		<path fill="#FFFFFF" d="M0,0.488h26.333v4.937H0V0.488z"/>
		<path fill="#FFFFFF" d="M0,21.884h26.333v4.937H0V21.884z"/>
	</g>
</g>
</svg>
